<mxfile host="app.diagrams.net" agent="Mozilla/5.0 (Windows NT 10.0; Win64; x64) AppleWebKit/537.36 (KHTML, like Gecko) Chrome/136.0.0.0 Safari/537.36" version="27.0.6">
  <diagram name="Page-1" id="hsTizs2AMda-nEDezFh4">
    <mxGraphModel dx="786" dy="417" grid="1" gridSize="10" guides="1" tooltips="1" connect="1" arrows="1" fold="1" page="1" pageScale="1" pageWidth="850" pageHeight="1100" math="0" shadow="0">
      <root>
        <mxCell id="0" />
        <mxCell id="1" parent="0" />
        <mxCell id="rZQSEeScumoXJ7R4sCdh-129" value="" style="rounded=0;whiteSpace=wrap;html=1;" vertex="1" parent="1">
          <mxGeometry x="30" y="60" width="490" height="82" as="geometry" />
        </mxCell>
        <mxCell id="rZQSEeScumoXJ7R4sCdh-109" value="" style="rounded=0;whiteSpace=wrap;html=1;" vertex="1" parent="1">
          <mxGeometry x="190" y="150" width="328" height="245" as="geometry" />
        </mxCell>
        <mxCell id="rZQSEeScumoXJ7R4sCdh-14" value="" style="group;fontSize=11;" vertex="1" connectable="0" parent="1">
          <mxGeometry x="240" y="284" width="60" height="76" as="geometry" />
        </mxCell>
        <mxCell id="rZQSEeScumoXJ7R4sCdh-15" style="vsdxID=53;fillColor=none;gradientColor=none;strokeColor=none;spacingTop=-3;spacingBottom=-3;spacingLeft=-3;spacingRight=-3;points=[];labelBackgroundColor=none;rounded=0;html=1;whiteSpace=wrap;" vertex="1" parent="rZQSEeScumoXJ7R4sCdh-14">
          <mxGeometry width="60" height="49.107692307692304" as="geometry" />
        </mxCell>
        <mxCell id="rZQSEeScumoXJ7R4sCdh-16" style="vsdxID=54;fillColor=none;gradientColor=none;strokeColor=none;spacingTop=-3;spacingBottom=-3;spacingLeft=-3;spacingRight=-3;points=[];labelBackgroundColor=none;rounded=0;html=1;whiteSpace=wrap;" vertex="1" parent="rZQSEeScumoXJ7R4sCdh-15">
          <mxGeometry width="60" height="49.107692307692304" as="geometry" />
        </mxCell>
        <mxCell id="rZQSEeScumoXJ7R4sCdh-17" style="vsdxID=55;fillColor=#FFFFFF;gradientColor=none;shape=stencil(lZPRDoIwDEW/Zq9LWUHCs+J/EAVZRCATFP/eYYdsAzW+td2922mzMtxey6zNmYBrp5pzfpfHrmS4Y0LIusyV7HTEMGW4LRqVn1TT10fK22xUjtGluY03DOSLOEajScCDCknC482rsif9oVdkCEggeIjGEfgWGASVwChMmsQchVGgqzBpEvLQfrWStUUJDuKb+QMhuHgz8ERnteDyTnDWVBzcVTiNvnFnCN/o9Cyi2CUEFy8Ab3xWB+hLfOJVxFnuI3+AnA1L6kEsG/HJB1zOxkNfBf39Hf/V62D++4WsKlod+9zfFV2iPcP0CQ==);strokeColor=none;spacingTop=-3;spacingBottom=-3;spacingLeft=-3;spacingRight=-3;points=[];labelBackgroundColor=none;rounded=0;html=1;whiteSpace=wrap;" vertex="1" parent="rZQSEeScumoXJ7R4sCdh-16">
          <mxGeometry x="0.7142857142857143" y="0.5846153846153846" width="58.57142857142858" height="47.93846153846153" as="geometry" />
        </mxCell>
        <mxCell id="rZQSEeScumoXJ7R4sCdh-18" style="vsdxID=56;fillColor=#FFFFFF;gradientColor=none;shape=stencil(lZXRdoIwDIafprc9aUMpvXb6Hp6JgzMmHsSNvf1gLbQNCHpX4h/88iehDHe34njNmYRb29Sf+U95aguGb0zK8lLkTdn2J4Z7hrtz3eQfTX2/nOzz9Tgoh9NX/T28obN5BjmqIUvCr41Ijtl/4GD17/fGJgiXoXhiXIYgKdBJJ9IcR5ELJVy6SIdzkQulPMHwz6vyEsIGCRN+JlZpgxRfgFEEN6jJV5ClhDfwCqlqEbgvR8S8VE95e5c0wdU8lTFu77cmtIprEdMGIs+v9GPYIGG5GZQ1SBCzHstZPXI2LDhzCZdnkIzB5sy+qt/aCXihxbBuWaZiyyD2C6hZdAghdmp9YSAi21wWYHTyREInb+J3EQHANro5Sh41R8U7TeQLGy2Ih56BQgXbPJWCVPPcenj9c9thDNcp/U5O3Ry5Um5EjErsXPjorLu5Nrr9wV8E57Kq7D0S/k4vjj5kLx3c/wE=);strokeColor=none;spacingTop=-3;spacingBottom=-3;spacingLeft=-3;spacingRight=-3;points=[];labelBackgroundColor=none;rounded=0;html=1;whiteSpace=wrap;" vertex="1" parent="rZQSEeScumoXJ7R4sCdh-16">
          <mxGeometry width="60" height="49.107692307692304" as="geometry" />
        </mxCell>
        <mxCell id="rZQSEeScumoXJ7R4sCdh-19" style="vsdxID=57;fillColor=none;gradientColor=none;strokeColor=none;spacingTop=-3;spacingBottom=-3;spacingLeft=-3;spacingRight=-3;points=[];labelBackgroundColor=none;rounded=0;html=1;whiteSpace=wrap;" vertex="1" parent="rZQSEeScumoXJ7R4sCdh-15">
          <mxGeometry x="1.4285714285714286" y="1.1692307692307693" width="57.142857142857146" height="46.76923076923076" as="geometry" />
        </mxCell>
        <mxCell id="rZQSEeScumoXJ7R4sCdh-20" style="vsdxID=58;fillColor=#2d5967;gradientColor=none;shape=stencil(lZXLcoMwDEW/xlvGWDzidZr8R6YhhSmFDCEt+ftCbbAkB+Lu/LgyR/IVFrC/ladrIZS89V37WfxU574U8CaUqpqy6Kp+HAk4CNhf2q746Np7czbz62lSTqOv9ns6YTBxOo3SeIpS8mFW5N/saMR11SBxEqlkXft+78zJsdmMI62tOsZyOSgyfdipsrtAd2H5drpOJgmWzra4JIXSO0qFsOcVKSkaqgNQyVO4scZ5RgCZnBPqXSRjSukYONRMueQBXAAOY6OETv+84B6kno9bIBVF1LnLm175AL774KX9XniVGTtzNVzJ38so88puneRSSr2UxihbqK20nCqsszw9hwWvuzCImkV5wmkpKlKE2QQFhPkEBdiVhEPyhoPFWesdB5uUfstxfcDlIwx01+z6EwqKFUF/rgCf/jtgHLj//aWqa/Nc4H3+PoxL5m2Bwy8=);strokeColor=none;spacingTop=-3;spacingBottom=-3;spacingLeft=-3;spacingRight=-3;points=[];labelBackgroundColor=none;rounded=0;html=1;whiteSpace=wrap;" vertex="1" parent="rZQSEeScumoXJ7R4sCdh-19">
          <mxGeometry width="57.142857142857146" height="46.76923076923076" as="geometry" />
        </mxCell>
        <mxCell id="rZQSEeScumoXJ7R4sCdh-21" style="vsdxID=59;fillColor=#2d5967;gradientColor=none;shape=stencil(pZJbDsIgFERXwy+hQBW/a91Hk1IhIjQUX7sXcmNsNaWx/s1wz32EDGLVoJpeIkqG4N1J3nQbFGJ7RKm2SnodokKsRqzqnJdH7y62Bd83iUzq7K5pwh36SOqg5AGuIOAPgBptR+iruArOoCvB7PosOv0BjkUxpTdYlPOjdxyXf/GCY7qd57/u+ZVfuGeZj+Idl04bA2kb1z/jFZ8gmqx+Ag==);strokeColor=none;spacingTop=-3;spacingBottom=-3;spacingLeft=-3;spacingRight=-3;points=[];labelBackgroundColor=none;rounded=0;html=1;whiteSpace=wrap;" vertex="1" parent="rZQSEeScumoXJ7R4sCdh-19">
          <mxGeometry x="7.857142857142858" y="29.81538461538461" width="41.42857142857143" height="9.938461538461537" as="geometry" />
        </mxCell>
        <mxCell id="rZQSEeScumoXJ7R4sCdh-22" style="vsdxID=60;fillColor=#2d5967;gradientColor=none;shape=stencil(jVLRDoMgDPwaXg2UOeezc/9hJk4ypwZ107+fpCRClxnf2nLH9eCYzIa66BUDPoyme6qPLseaySsD0G2tjB7XismcyazqjHqYbmpL7PvCIm316t72hhl5MbcU4Au2gmN/Q+x9MggWeJwk0Vk4gggZfAYyWGAjgcNIinGDUxql6Z7yxnADgEheQmV/OzfioW5MZHfNWoUkFCVWiVF/JRkijtokJv2ng9+t6Iv/s0l+tdHt4QSsxRadSjcNJs8/p1FbRxhTmX8B);strokeColor=none;spacingTop=-3;spacingBottom=-3;spacingLeft=-3;spacingRight=-3;points=[];labelBackgroundColor=none;rounded=0;html=1;whiteSpace=wrap;" vertex="1" parent="rZQSEeScumoXJ7R4sCdh-19">
          <mxGeometry x="40.714285714285715" y="33.9076923076923" width="2.857142857142857" height="2.338461538461538" as="geometry" />
        </mxCell>
        <mxCell id="rZQSEeScumoXJ7R4sCdh-23" style="vsdxID=61;fillColor=#2d5967;gradientColor=none;shape=stencil(pZLbDsIgEES/Zl8JZW3E51r/o0mpEBEa2nr5e0Fi2qrpRd92Z8+QCRnArJFFLYDRpnX2JK6qbCXgHhhTRgqnWj8B5oBZZZ04OtuZMu51Ecgwne0lvHCLvh0nnAcXo/eo0Od2iLBWZgDT38CETqCv4yJ4VdoZePwPHEmyGcFBSSdyp2SL/xl65avhM9Jqw0ykBQY/9NWplNaxecP7e9W8FGuK+QM=);strokeColor=none;spacingTop=-3;spacingBottom=-3;spacingLeft=-3;spacingRight=-3;points=[];labelBackgroundColor=none;rounded=0;html=1;whiteSpace=wrap;" vertex="1" parent="rZQSEeScumoXJ7R4sCdh-19">
          <mxGeometry x="7.857142857142858" y="6.430769230769229" width="12.142857142857142" height="9.938461538461537" as="geometry" />
        </mxCell>
        <mxCell id="rZQSEeScumoXJ7R4sCdh-24" style="vsdxID=62;fillColor=#2d5967;gradientColor=none;shape=stencil(pZJJDoMwDEVP422UxGXYU3oPJEKJmhIUoMPtm8iqCnSE7vzj920r+oBZVxetAsm73tmDOuuyrwG3IKVuauV07yvAHDCrrFN7Z4emJN0WgQzV0Z7ChAv5BOfBI/mVNKkdoUY3I3QleN/wEp2vXwSvRac/kG6YTCZwikxEH2bHLI3/M4iIJfje8HzSYsOXk34w+OIRmkobQ5kb9+ch808UUMxv);strokeColor=none;spacingTop=-3;spacingBottom=-3;spacingLeft=-3;spacingRight=-3;points=[];labelBackgroundColor=none;rounded=0;html=1;whiteSpace=wrap;" vertex="1" parent="rZQSEeScumoXJ7R4sCdh-19">
          <mxGeometry x="22.142857142857142" y="6.430769230769229" width="12.142857142857142" height="9.938461538461537" as="geometry" />
        </mxCell>
        <mxCell id="rZQSEeScumoXJ7R4sCdh-25" style="vsdxID=63;fillColor=#2d5967;gradientColor=none;shape=stencil(pZLbDsIgEES/Zl8JZW3E51r/o0mpEBEa2nr5e0Fi2qrpRd92Z8+QCRnArJFFLYDRpnX2JK6qbCXgHhhTRgqnWj8B5oBZZZ04OtuZMu51Ecgwne0lvHCLvh0nnAcXo/eo0Od2iLBWZgDT38CETqCv4yJ4VdoZePwPHEmyGcFBSSdyp2SL/xl65avhM9Jqw0ykBQY/9NWplNaxecP7e9W8FGuK+QM=);strokeColor=none;spacingTop=-3;spacingBottom=-3;spacingLeft=-3;spacingRight=-3;points=[];labelBackgroundColor=none;rounded=0;html=1;whiteSpace=wrap;" vertex="1" parent="rZQSEeScumoXJ7R4sCdh-19">
          <mxGeometry x="7.857142857142858" y="18.12307692307692" width="12.142857142857142" height="9.938461538461537" as="geometry" />
        </mxCell>
        <mxCell id="rZQSEeScumoXJ7R4sCdh-26" style="vsdxID=64;fillColor=#2d5967;gradientColor=none;shape=stencil(pZJJDoMwDEVP422UxGXYU3oPJEKJmhIUoMPtm8iqCnSE7vzj920r+oBZVxetAsm73tmDOuuyrwG3IKVuauV07yvAHDCrrFN7Z4emJN0WgQzV0Z7ChAv5BOfBI/mVNKkdoUY3I3QleN/wEp2vXwSvRac/kG6YTCZwikxEH2bHLI3/M4iIJfje8HzSYsOXk34w+OIRmkobQ5kb9+ch808UUMxv);strokeColor=none;spacingTop=-3;spacingBottom=-3;spacingLeft=-3;spacingRight=-3;points=[];labelBackgroundColor=none;rounded=0;html=1;whiteSpace=wrap;" vertex="1" parent="rZQSEeScumoXJ7R4sCdh-19">
          <mxGeometry x="22.142857142857142" y="18.12307692307692" width="12.142857142857142" height="9.938461538461537" as="geometry" />
        </mxCell>
        <mxCell id="rZQSEeScumoXJ7R4sCdh-27" style="vsdxID=65;fillColor=#2d5967;gradientColor=none;shape=stencil(pZJJDoMwDEVP422UxGXYU3oPJEKJmhIUoMPtm8iqCnSE7vzj920r+oBZVxetAsm73tmDOuuyrwG3IKVuauV07yvAHDCrrFN7Z4emJN0WgQzV0Z7ChAv5BOfBI/mVNKkdoUY3I3QleN/wEp2vXwSvRac/kG6YTCZwikxEH2bHLI3/M4iIJfje8HzSYsOXk34w+OIRmkobQ5kb9+ch808UUMxv);strokeColor=none;spacingTop=-3;spacingBottom=-3;spacingLeft=-3;spacingRight=-3;points=[];labelBackgroundColor=none;rounded=0;html=1;whiteSpace=wrap;" vertex="1" parent="rZQSEeScumoXJ7R4sCdh-19">
          <mxGeometry x="36.42857142857142" y="6.430769230769229" width="12.142857142857142" height="9.938461538461537" as="geometry" />
        </mxCell>
        <mxCell id="rZQSEeScumoXJ7R4sCdh-28" style="vsdxID=66;fillColor=#2d5967;gradientColor=none;shape=stencil(pZJJDoMwDEVP422UxGXYU3oPJEKJmhIUoMPtm8iqCnSE7vzj920r+oBZVxetAsm73tmDOuuyrwG3IKVuauV07yvAHDCrrFN7Z4emJN0WgQzV0Z7ChAv5BOfBI/mVNKkdoUY3I3QleN/wEp2vXwSvRac/kG6YTCZwikxEH2bHLI3/M4iIJfje8HzSYsOXk34w+OIRmkobQ5kb9+ch808UUMxv);strokeColor=none;spacingTop=-3;spacingBottom=-3;spacingLeft=-3;spacingRight=-3;points=[];labelBackgroundColor=none;rounded=0;html=1;whiteSpace=wrap;" vertex="1" parent="rZQSEeScumoXJ7R4sCdh-19">
          <mxGeometry x="36.42857142857142" y="18.12307692307692" width="12.142857142857142" height="9.938461538461537" as="geometry" />
        </mxCell>
        <mxCell id="rZQSEeScumoXJ7R4sCdh-29" value="&lt;div style=&quot;&quot;&gt;&lt;p style=&quot;margin: 0px; text-indent: 0px; direction: ltr;&quot;&gt;&lt;font face=&quot;Oracle Sans&quot;&gt;VM1&lt;/font&gt;&lt;/p&gt;&lt;/div&gt;" style="verticalAlign=middle;align=center;vsdxID=68;fillColor=none;gradientColor=none;shape=stencil(nZBLDoAgDERP0z3SIyjew0SURgSD+Lu9kMZoXLhwN9O+tukAlrNpJg1SzDH4QW/URgNYgZTkjA4UkwJUgGXng+6DX1zLfmoymdXo17xh5zmRJ6Q42BWCfc2oJfdAr+Yv+AP9Cb7OJ3H/2JG1HNGz/84klThPVCc=);strokeColor=none;spacingTop=-3;spacingBottom=-3;spacingLeft=-3;spacingRight=-3;points=[];labelBackgroundColor=none;rounded=0;html=1;whiteSpace=wrap;" vertex="1" parent="rZQSEeScumoXJ7R4sCdh-14">
          <mxGeometry x="2.857142857142857" y="52.03076923076923" width="54.285714285714285" height="23.96923076923077" as="geometry" />
        </mxCell>
        <mxCell id="rZQSEeScumoXJ7R4sCdh-30" value="" style="group" vertex="1" connectable="0" parent="1">
          <mxGeometry x="320" y="285" width="60" height="75" as="geometry" />
        </mxCell>
        <mxCell id="rZQSEeScumoXJ7R4sCdh-31" style="vsdxID=53;fillColor=none;gradientColor=none;strokeColor=none;spacingTop=-3;spacingBottom=-3;spacingLeft=-3;spacingRight=-3;points=[];labelBackgroundColor=none;rounded=0;html=1;whiteSpace=wrap;" vertex="1" parent="rZQSEeScumoXJ7R4sCdh-30">
          <mxGeometry width="60" height="48.46153846153846" as="geometry" />
        </mxCell>
        <mxCell id="rZQSEeScumoXJ7R4sCdh-32" style="vsdxID=54;fillColor=none;gradientColor=none;strokeColor=none;spacingTop=-3;spacingBottom=-3;spacingLeft=-3;spacingRight=-3;points=[];labelBackgroundColor=none;rounded=0;html=1;whiteSpace=wrap;" vertex="1" parent="rZQSEeScumoXJ7R4sCdh-31">
          <mxGeometry width="60" height="48.46153846153846" as="geometry" />
        </mxCell>
        <mxCell id="rZQSEeScumoXJ7R4sCdh-33" style="vsdxID=55;fillColor=#FFFFFF;gradientColor=none;shape=stencil(lZPRDoIwDEW/Zq9LWUHCs+J/EAVZRCATFP/eYYdsAzW+td2922mzMtxey6zNmYBrp5pzfpfHrmS4Y0LIusyV7HTEMGW4LRqVn1TT10fK22xUjtGluY03DOSLOEajScCDCknC482rsif9oVdkCEggeIjGEfgWGASVwChMmsQchVGgqzBpEvLQfrWStUUJDuKb+QMhuHgz8ERnteDyTnDWVBzcVTiNvnFnCN/o9Cyi2CUEFy8Ab3xWB+hLfOJVxFnuI3+AnA1L6kEsG/HJB1zOxkNfBf39Hf/V62D++4WsKlod+9zfFV2iPcP0CQ==);strokeColor=none;spacingTop=-3;spacingBottom=-3;spacingLeft=-3;spacingRight=-3;points=[];labelBackgroundColor=none;rounded=0;html=1;whiteSpace=wrap;" vertex="1" parent="rZQSEeScumoXJ7R4sCdh-32">
          <mxGeometry x="0.7142857142857143" y="0.576923076923077" width="58.57142857142858" height="47.30769230769231" as="geometry" />
        </mxCell>
        <mxCell id="rZQSEeScumoXJ7R4sCdh-34" style="vsdxID=56;fillColor=#FFFFFF;gradientColor=none;shape=stencil(lZXRdoIwDIafprc9aUMpvXb6Hp6JgzMmHsSNvf1gLbQNCHpX4h/88iehDHe34njNmYRb29Sf+U95aguGb0zK8lLkTdn2J4Z7hrtz3eQfTX2/nOzz9Tgoh9NX/T28obN5BjmqIUvCr41Ijtl/4GD17/fGJgiXoXhiXIYgKdBJJ9IcR5ELJVy6SIdzkQulPMHwz6vyEsIGCRN+JlZpgxRfgFEEN6jJV5ClhDfwCqlqEbgvR8S8VE95e5c0wdU8lTFu77cmtIprEdMGIs+v9GPYIGG5GZQ1SBCzHstZPXI2LDhzCZdnkIzB5sy+qt/aCXihxbBuWaZiyyD2C6hZdAghdmp9YSAi21wWYHTyREInb+J3EQHANro5Sh41R8U7TeQLGy2Ih56BQgXbPJWCVPPcenj9c9thDNcp/U5O3Ry5Um5EjErsXPjorLu5Nrr9wV8E57Kq7D0S/k4vjj5kLx3c/wE=);strokeColor=none;spacingTop=-3;spacingBottom=-3;spacingLeft=-3;spacingRight=-3;points=[];labelBackgroundColor=none;rounded=0;html=1;whiteSpace=wrap;" vertex="1" parent="rZQSEeScumoXJ7R4sCdh-32">
          <mxGeometry width="60" height="48.46153846153846" as="geometry" />
        </mxCell>
        <mxCell id="rZQSEeScumoXJ7R4sCdh-35" style="vsdxID=57;fillColor=none;gradientColor=none;strokeColor=none;spacingTop=-3;spacingBottom=-3;spacingLeft=-3;spacingRight=-3;points=[];labelBackgroundColor=none;rounded=0;html=1;whiteSpace=wrap;" vertex="1" parent="rZQSEeScumoXJ7R4sCdh-31">
          <mxGeometry x="1.4285714285714286" y="1.153846153846154" width="57.142857142857146" height="46.153846153846146" as="geometry" />
        </mxCell>
        <mxCell id="rZQSEeScumoXJ7R4sCdh-36" style="vsdxID=58;fillColor=#2d5967;gradientColor=none;shape=stencil(lZXLcoMwDEW/xlvGWDzidZr8R6YhhSmFDCEt+ftCbbAkB+Lu/LgyR/IVFrC/ladrIZS89V37WfxU574U8CaUqpqy6Kp+HAk4CNhf2q746Np7czbz62lSTqOv9ns6YTBxOo3SeIpS8mFW5N/saMR11SBxEqlkXft+78zJsdmMI62tOsZyOSgyfdipsrtAd2H5drpOJgmWzra4JIXSO0qFsOcVKSkaqgNQyVO4scZ5RgCZnBPqXSRjSukYONRMueQBXAAOY6OETv+84B6kno9bIBVF1LnLm175AL774KX9XniVGTtzNVzJ38so88puneRSSr2UxihbqK20nCqsszw9hwWvuzCImkV5wmkpKlKE2QQFhPkEBdiVhEPyhoPFWesdB5uUfstxfcDlIwx01+z6EwqKFUF/rgCf/jtgHLj//aWqa/Nc4H3+PoxL5m2Bwy8=);strokeColor=none;spacingTop=-3;spacingBottom=-3;spacingLeft=-3;spacingRight=-3;points=[];labelBackgroundColor=none;rounded=0;html=1;whiteSpace=wrap;" vertex="1" parent="rZQSEeScumoXJ7R4sCdh-35">
          <mxGeometry width="57.142857142857146" height="46.153846153846146" as="geometry" />
        </mxCell>
        <mxCell id="rZQSEeScumoXJ7R4sCdh-37" style="vsdxID=59;fillColor=#2d5967;gradientColor=none;shape=stencil(pZJbDsIgFERXwy+hQBW/a91Hk1IhIjQUX7sXcmNsNaWx/s1wz32EDGLVoJpeIkqG4N1J3nQbFGJ7RKm2SnodokKsRqzqnJdH7y62Bd83iUzq7K5pwh36SOqg5AGuIOAPgBptR+iruArOoCvB7PosOv0BjkUxpTdYlPOjdxyXf/GCY7qd57/u+ZVfuGeZj+Idl04bA2kb1z/jFZ8gmqx+Ag==);strokeColor=none;spacingTop=-3;spacingBottom=-3;spacingLeft=-3;spacingRight=-3;points=[];labelBackgroundColor=none;rounded=0;html=1;whiteSpace=wrap;" vertex="1" parent="rZQSEeScumoXJ7R4sCdh-35">
          <mxGeometry x="7.857142857142858" y="29.42307692307692" width="41.42857142857143" height="9.807692307692307" as="geometry" />
        </mxCell>
        <mxCell id="rZQSEeScumoXJ7R4sCdh-38" style="vsdxID=60;fillColor=#2d5967;gradientColor=none;shape=stencil(jVLRDoMgDPwaXg2UOeezc/9hJk4ypwZ107+fpCRClxnf2nLH9eCYzIa66BUDPoyme6qPLseaySsD0G2tjB7XismcyazqjHqYbmpL7PvCIm316t72hhl5MbcU4Au2gmN/Q+x9MggWeJwk0Vk4gggZfAYyWGAjgcNIinGDUxql6Z7yxnADgEheQmV/OzfioW5MZHfNWoUkFCVWiVF/JRkijtokJv2ng9+t6Iv/s0l+tdHt4QSsxRadSjcNJs8/p1FbRxhTmX8B);strokeColor=none;spacingTop=-3;spacingBottom=-3;spacingLeft=-3;spacingRight=-3;points=[];labelBackgroundColor=none;rounded=0;html=1;whiteSpace=wrap;" vertex="1" parent="rZQSEeScumoXJ7R4sCdh-35">
          <mxGeometry x="40.714285714285715" y="33.46153846153846" width="2.857142857142857" height="2.3076923076923075" as="geometry" />
        </mxCell>
        <mxCell id="rZQSEeScumoXJ7R4sCdh-39" style="vsdxID=61;fillColor=#2d5967;gradientColor=none;shape=stencil(pZLbDsIgEES/Zl8JZW3E51r/o0mpEBEa2nr5e0Fi2qrpRd92Z8+QCRnArJFFLYDRpnX2JK6qbCXgHhhTRgqnWj8B5oBZZZ04OtuZMu51Ecgwne0lvHCLvh0nnAcXo/eo0Od2iLBWZgDT38CETqCv4yJ4VdoZePwPHEmyGcFBSSdyp2SL/xl65avhM9Jqw0ykBQY/9NWplNaxecP7e9W8FGuK+QM=);strokeColor=none;spacingTop=-3;spacingBottom=-3;spacingLeft=-3;spacingRight=-3;points=[];labelBackgroundColor=none;rounded=0;html=1;whiteSpace=wrap;" vertex="1" parent="rZQSEeScumoXJ7R4sCdh-35">
          <mxGeometry x="7.857142857142858" y="6.346153846153845" width="12.142857142857142" height="9.807692307692307" as="geometry" />
        </mxCell>
        <mxCell id="rZQSEeScumoXJ7R4sCdh-40" style="vsdxID=62;fillColor=#2d5967;gradientColor=none;shape=stencil(pZJJDoMwDEVP422UxGXYU3oPJEKJmhIUoMPtm8iqCnSE7vzj920r+oBZVxetAsm73tmDOuuyrwG3IKVuauV07yvAHDCrrFN7Z4emJN0WgQzV0Z7ChAv5BOfBI/mVNKkdoUY3I3QleN/wEp2vXwSvRac/kG6YTCZwikxEH2bHLI3/M4iIJfje8HzSYsOXk34w+OIRmkobQ5kb9+ch808UUMxv);strokeColor=none;spacingTop=-3;spacingBottom=-3;spacingLeft=-3;spacingRight=-3;points=[];labelBackgroundColor=none;rounded=0;html=1;whiteSpace=wrap;" vertex="1" parent="rZQSEeScumoXJ7R4sCdh-35">
          <mxGeometry x="22.142857142857142" y="6.346153846153845" width="12.142857142857142" height="9.807692307692307" as="geometry" />
        </mxCell>
        <mxCell id="rZQSEeScumoXJ7R4sCdh-41" style="vsdxID=63;fillColor=#2d5967;gradientColor=none;shape=stencil(pZLbDsIgEES/Zl8JZW3E51r/o0mpEBEa2nr5e0Fi2qrpRd92Z8+QCRnArJFFLYDRpnX2JK6qbCXgHhhTRgqnWj8B5oBZZZ04OtuZMu51Ecgwne0lvHCLvh0nnAcXo/eo0Od2iLBWZgDT38CETqCv4yJ4VdoZePwPHEmyGcFBSSdyp2SL/xl65avhM9Jqw0ykBQY/9NWplNaxecP7e9W8FGuK+QM=);strokeColor=none;spacingTop=-3;spacingBottom=-3;spacingLeft=-3;spacingRight=-3;points=[];labelBackgroundColor=none;rounded=0;html=1;whiteSpace=wrap;" vertex="1" parent="rZQSEeScumoXJ7R4sCdh-35">
          <mxGeometry x="7.857142857142858" y="17.884615384615383" width="12.142857142857142" height="9.807692307692307" as="geometry" />
        </mxCell>
        <mxCell id="rZQSEeScumoXJ7R4sCdh-42" style="vsdxID=64;fillColor=#2d5967;gradientColor=none;shape=stencil(pZJJDoMwDEVP422UxGXYU3oPJEKJmhIUoMPtm8iqCnSE7vzj920r+oBZVxetAsm73tmDOuuyrwG3IKVuauV07yvAHDCrrFN7Z4emJN0WgQzV0Z7ChAv5BOfBI/mVNKkdoUY3I3QleN/wEp2vXwSvRac/kG6YTCZwikxEH2bHLI3/M4iIJfje8HzSYsOXk34w+OIRmkobQ5kb9+ch808UUMxv);strokeColor=none;spacingTop=-3;spacingBottom=-3;spacingLeft=-3;spacingRight=-3;points=[];labelBackgroundColor=none;rounded=0;html=1;whiteSpace=wrap;" vertex="1" parent="rZQSEeScumoXJ7R4sCdh-35">
          <mxGeometry x="22.142857142857142" y="17.884615384615383" width="12.142857142857142" height="9.807692307692307" as="geometry" />
        </mxCell>
        <mxCell id="rZQSEeScumoXJ7R4sCdh-43" style="vsdxID=65;fillColor=#2d5967;gradientColor=none;shape=stencil(pZJJDoMwDEVP422UxGXYU3oPJEKJmhIUoMPtm8iqCnSE7vzj920r+oBZVxetAsm73tmDOuuyrwG3IKVuauV07yvAHDCrrFN7Z4emJN0WgQzV0Z7ChAv5BOfBI/mVNKkdoUY3I3QleN/wEp2vXwSvRac/kG6YTCZwikxEH2bHLI3/M4iIJfje8HzSYsOXk34w+OIRmkobQ5kb9+ch808UUMxv);strokeColor=none;spacingTop=-3;spacingBottom=-3;spacingLeft=-3;spacingRight=-3;points=[];labelBackgroundColor=none;rounded=0;html=1;whiteSpace=wrap;" vertex="1" parent="rZQSEeScumoXJ7R4sCdh-35">
          <mxGeometry x="36.42857142857142" y="6.346153846153845" width="12.142857142857142" height="9.807692307692307" as="geometry" />
        </mxCell>
        <mxCell id="rZQSEeScumoXJ7R4sCdh-44" style="vsdxID=66;fillColor=#2d5967;gradientColor=none;shape=stencil(pZJJDoMwDEVP422UxGXYU3oPJEKJmhIUoMPtm8iqCnSE7vzj920r+oBZVxetAsm73tmDOuuyrwG3IKVuauV07yvAHDCrrFN7Z4emJN0WgQzV0Z7ChAv5BOfBI/mVNKkdoUY3I3QleN/wEp2vXwSvRac/kG6YTCZwikxEH2bHLI3/M4iIJfje8HzSYsOXk34w+OIRmkobQ5kb9+ch808UUMxv);strokeColor=none;spacingTop=-3;spacingBottom=-3;spacingLeft=-3;spacingRight=-3;points=[];labelBackgroundColor=none;rounded=0;html=1;whiteSpace=wrap;" vertex="1" parent="rZQSEeScumoXJ7R4sCdh-35">
          <mxGeometry x="36.42857142857142" y="17.884615384615383" width="12.142857142857142" height="9.807692307692307" as="geometry" />
        </mxCell>
        <mxCell id="rZQSEeScumoXJ7R4sCdh-45" value="&lt;div style=&quot;&quot;&gt;&lt;p style=&quot;margin: 0px; text-indent: 0px; direction: ltr;&quot;&gt;&lt;font face=&quot;Oracle Sans&quot;&gt;VM2&lt;/font&gt;&lt;/p&gt;&lt;/div&gt;" style="verticalAlign=middle;align=center;vsdxID=68;fillColor=none;gradientColor=none;shape=stencil(nZBLDoAgDERP0z3SIyjew0SURgSD+Lu9kMZoXLhwN9O+tukAlrNpJg1SzDH4QW/URgNYgZTkjA4UkwJUgGXng+6DX1zLfmoymdXo17xh5zmRJ6Q42BWCfc2oJfdAr+Yv+AP9Cb7OJ3H/2JG1HNGz/84klThPVCc=);strokeColor=none;spacingTop=-3;spacingBottom=-3;spacingLeft=-3;spacingRight=-3;points=[];labelBackgroundColor=none;rounded=0;html=1;whiteSpace=wrap;" vertex="1" parent="rZQSEeScumoXJ7R4sCdh-30">
          <mxGeometry x="2.857142857142857" y="51.346153846153854" width="54.285714285714285" height="23.653846153846157" as="geometry" />
        </mxCell>
        <mxCell id="rZQSEeScumoXJ7R4sCdh-46" value="" style="group" vertex="1" connectable="0" parent="1">
          <mxGeometry x="394" y="285" width="60" height="75" as="geometry" />
        </mxCell>
        <mxCell id="rZQSEeScumoXJ7R4sCdh-47" style="vsdxID=53;fillColor=none;gradientColor=none;strokeColor=none;spacingTop=-3;spacingBottom=-3;spacingLeft=-3;spacingRight=-3;points=[];labelBackgroundColor=none;rounded=0;html=1;whiteSpace=wrap;" vertex="1" parent="rZQSEeScumoXJ7R4sCdh-46">
          <mxGeometry width="60" height="48.46153846153846" as="geometry" />
        </mxCell>
        <mxCell id="rZQSEeScumoXJ7R4sCdh-48" style="vsdxID=54;fillColor=none;gradientColor=none;strokeColor=none;spacingTop=-3;spacingBottom=-3;spacingLeft=-3;spacingRight=-3;points=[];labelBackgroundColor=none;rounded=0;html=1;whiteSpace=wrap;" vertex="1" parent="rZQSEeScumoXJ7R4sCdh-47">
          <mxGeometry width="60" height="48.46153846153846" as="geometry" />
        </mxCell>
        <mxCell id="rZQSEeScumoXJ7R4sCdh-49" style="vsdxID=55;fillColor=#FFFFFF;gradientColor=none;shape=stencil(lZPRDoIwDEW/Zq9LWUHCs+J/EAVZRCATFP/eYYdsAzW+td2922mzMtxey6zNmYBrp5pzfpfHrmS4Y0LIusyV7HTEMGW4LRqVn1TT10fK22xUjtGluY03DOSLOEajScCDCknC482rsif9oVdkCEggeIjGEfgWGASVwChMmsQchVGgqzBpEvLQfrWStUUJDuKb+QMhuHgz8ERnteDyTnDWVBzcVTiNvnFnCN/o9Cyi2CUEFy8Ab3xWB+hLfOJVxFnuI3+AnA1L6kEsG/HJB1zOxkNfBf39Hf/V62D++4WsKlod+9zfFV2iPcP0CQ==);strokeColor=none;spacingTop=-3;spacingBottom=-3;spacingLeft=-3;spacingRight=-3;points=[];labelBackgroundColor=none;rounded=0;html=1;whiteSpace=wrap;" vertex="1" parent="rZQSEeScumoXJ7R4sCdh-48">
          <mxGeometry x="0.7142857142857143" y="0.576923076923077" width="58.57142857142858" height="47.30769230769231" as="geometry" />
        </mxCell>
        <mxCell id="rZQSEeScumoXJ7R4sCdh-50" style="vsdxID=56;fillColor=#FFFFFF;gradientColor=none;shape=stencil(lZXRdoIwDIafprc9aUMpvXb6Hp6JgzMmHsSNvf1gLbQNCHpX4h/88iehDHe34njNmYRb29Sf+U95aguGb0zK8lLkTdn2J4Z7hrtz3eQfTX2/nOzz9Tgoh9NX/T28obN5BjmqIUvCr41Ijtl/4GD17/fGJgiXoXhiXIYgKdBJJ9IcR5ELJVy6SIdzkQulPMHwz6vyEsIGCRN+JlZpgxRfgFEEN6jJV5ClhDfwCqlqEbgvR8S8VE95e5c0wdU8lTFu77cmtIprEdMGIs+v9GPYIGG5GZQ1SBCzHstZPXI2LDhzCZdnkIzB5sy+qt/aCXihxbBuWaZiyyD2C6hZdAghdmp9YSAi21wWYHTyREInb+J3EQHANro5Sh41R8U7TeQLGy2Ih56BQgXbPJWCVPPcenj9c9thDNcp/U5O3Ry5Um5EjErsXPjorLu5Nrr9wV8E57Kq7D0S/k4vjj5kLx3c/wE=);strokeColor=none;spacingTop=-3;spacingBottom=-3;spacingLeft=-3;spacingRight=-3;points=[];labelBackgroundColor=none;rounded=0;html=1;whiteSpace=wrap;" vertex="1" parent="rZQSEeScumoXJ7R4sCdh-48">
          <mxGeometry width="60" height="48.46153846153846" as="geometry" />
        </mxCell>
        <mxCell id="rZQSEeScumoXJ7R4sCdh-51" style="vsdxID=57;fillColor=none;gradientColor=none;strokeColor=none;spacingTop=-3;spacingBottom=-3;spacingLeft=-3;spacingRight=-3;points=[];labelBackgroundColor=none;rounded=0;html=1;whiteSpace=wrap;" vertex="1" parent="rZQSEeScumoXJ7R4sCdh-47">
          <mxGeometry x="1.4285714285714286" y="1.153846153846154" width="57.142857142857146" height="46.153846153846146" as="geometry" />
        </mxCell>
        <mxCell id="rZQSEeScumoXJ7R4sCdh-52" style="vsdxID=58;fillColor=#2d5967;gradientColor=none;shape=stencil(lZXLcoMwDEW/xlvGWDzidZr8R6YhhSmFDCEt+ftCbbAkB+Lu/LgyR/IVFrC/ladrIZS89V37WfxU574U8CaUqpqy6Kp+HAk4CNhf2q746Np7czbz62lSTqOv9ns6YTBxOo3SeIpS8mFW5N/saMR11SBxEqlkXft+78zJsdmMI62tOsZyOSgyfdipsrtAd2H5drpOJgmWzra4JIXSO0qFsOcVKSkaqgNQyVO4scZ5RgCZnBPqXSRjSukYONRMueQBXAAOY6OETv+84B6kno9bIBVF1LnLm175AL774KX9XniVGTtzNVzJ38so88puneRSSr2UxihbqK20nCqsszw9hwWvuzCImkV5wmkpKlKE2QQFhPkEBdiVhEPyhoPFWesdB5uUfstxfcDlIwx01+z6EwqKFUF/rgCf/jtgHLj//aWqa/Nc4H3+PoxL5m2Bwy8=);strokeColor=none;spacingTop=-3;spacingBottom=-3;spacingLeft=-3;spacingRight=-3;points=[];labelBackgroundColor=none;rounded=0;html=1;whiteSpace=wrap;" vertex="1" parent="rZQSEeScumoXJ7R4sCdh-51">
          <mxGeometry width="57.142857142857146" height="46.153846153846146" as="geometry" />
        </mxCell>
        <mxCell id="rZQSEeScumoXJ7R4sCdh-53" style="vsdxID=59;fillColor=#2d5967;gradientColor=none;shape=stencil(pZJbDsIgFERXwy+hQBW/a91Hk1IhIjQUX7sXcmNsNaWx/s1wz32EDGLVoJpeIkqG4N1J3nQbFGJ7RKm2SnodokKsRqzqnJdH7y62Bd83iUzq7K5pwh36SOqg5AGuIOAPgBptR+iruArOoCvB7PosOv0BjkUxpTdYlPOjdxyXf/GCY7qd57/u+ZVfuGeZj+Idl04bA2kb1z/jFZ8gmqx+Ag==);strokeColor=none;spacingTop=-3;spacingBottom=-3;spacingLeft=-3;spacingRight=-3;points=[];labelBackgroundColor=none;rounded=0;html=1;whiteSpace=wrap;" vertex="1" parent="rZQSEeScumoXJ7R4sCdh-51">
          <mxGeometry x="7.857142857142858" y="29.42307692307692" width="41.42857142857143" height="9.807692307692307" as="geometry" />
        </mxCell>
        <mxCell id="rZQSEeScumoXJ7R4sCdh-54" style="vsdxID=60;fillColor=#2d5967;gradientColor=none;shape=stencil(jVLRDoMgDPwaXg2UOeezc/9hJk4ypwZ107+fpCRClxnf2nLH9eCYzIa66BUDPoyme6qPLseaySsD0G2tjB7XismcyazqjHqYbmpL7PvCIm316t72hhl5MbcU4Au2gmN/Q+x9MggWeJwk0Vk4gggZfAYyWGAjgcNIinGDUxql6Z7yxnADgEheQmV/OzfioW5MZHfNWoUkFCVWiVF/JRkijtokJv2ng9+t6Iv/s0l+tdHt4QSsxRadSjcNJs8/p1FbRxhTmX8B);strokeColor=none;spacingTop=-3;spacingBottom=-3;spacingLeft=-3;spacingRight=-3;points=[];labelBackgroundColor=none;rounded=0;html=1;whiteSpace=wrap;" vertex="1" parent="rZQSEeScumoXJ7R4sCdh-51">
          <mxGeometry x="40.714285714285715" y="33.46153846153846" width="2.857142857142857" height="2.3076923076923075" as="geometry" />
        </mxCell>
        <mxCell id="rZQSEeScumoXJ7R4sCdh-55" style="vsdxID=61;fillColor=#2d5967;gradientColor=none;shape=stencil(pZLbDsIgEES/Zl8JZW3E51r/o0mpEBEa2nr5e0Fi2qrpRd92Z8+QCRnArJFFLYDRpnX2JK6qbCXgHhhTRgqnWj8B5oBZZZ04OtuZMu51Ecgwne0lvHCLvh0nnAcXo/eo0Od2iLBWZgDT38CETqCv4yJ4VdoZePwPHEmyGcFBSSdyp2SL/xl65avhM9Jqw0ykBQY/9NWplNaxecP7e9W8FGuK+QM=);strokeColor=none;spacingTop=-3;spacingBottom=-3;spacingLeft=-3;spacingRight=-3;points=[];labelBackgroundColor=none;rounded=0;html=1;whiteSpace=wrap;" vertex="1" parent="rZQSEeScumoXJ7R4sCdh-51">
          <mxGeometry x="7.857142857142858" y="6.346153846153845" width="12.142857142857142" height="9.807692307692307" as="geometry" />
        </mxCell>
        <mxCell id="rZQSEeScumoXJ7R4sCdh-56" style="vsdxID=62;fillColor=#2d5967;gradientColor=none;shape=stencil(pZJJDoMwDEVP422UxGXYU3oPJEKJmhIUoMPtm8iqCnSE7vzj920r+oBZVxetAsm73tmDOuuyrwG3IKVuauV07yvAHDCrrFN7Z4emJN0WgQzV0Z7ChAv5BOfBI/mVNKkdoUY3I3QleN/wEp2vXwSvRac/kG6YTCZwikxEH2bHLI3/M4iIJfje8HzSYsOXk34w+OIRmkobQ5kb9+ch808UUMxv);strokeColor=none;spacingTop=-3;spacingBottom=-3;spacingLeft=-3;spacingRight=-3;points=[];labelBackgroundColor=none;rounded=0;html=1;whiteSpace=wrap;" vertex="1" parent="rZQSEeScumoXJ7R4sCdh-51">
          <mxGeometry x="22.142857142857142" y="6.346153846153845" width="12.142857142857142" height="9.807692307692307" as="geometry" />
        </mxCell>
        <mxCell id="rZQSEeScumoXJ7R4sCdh-57" style="vsdxID=63;fillColor=#2d5967;gradientColor=none;shape=stencil(pZLbDsIgEES/Zl8JZW3E51r/o0mpEBEa2nr5e0Fi2qrpRd92Z8+QCRnArJFFLYDRpnX2JK6qbCXgHhhTRgqnWj8B5oBZZZ04OtuZMu51Ecgwne0lvHCLvh0nnAcXo/eo0Od2iLBWZgDT38CETqCv4yJ4VdoZePwPHEmyGcFBSSdyp2SL/xl65avhM9Jqw0ykBQY/9NWplNaxecP7e9W8FGuK+QM=);strokeColor=none;spacingTop=-3;spacingBottom=-3;spacingLeft=-3;spacingRight=-3;points=[];labelBackgroundColor=none;rounded=0;html=1;whiteSpace=wrap;" vertex="1" parent="rZQSEeScumoXJ7R4sCdh-51">
          <mxGeometry x="7.857142857142858" y="17.884615384615383" width="12.142857142857142" height="9.807692307692307" as="geometry" />
        </mxCell>
        <mxCell id="rZQSEeScumoXJ7R4sCdh-58" style="vsdxID=64;fillColor=#2d5967;gradientColor=none;shape=stencil(pZJJDoMwDEVP422UxGXYU3oPJEKJmhIUoMPtm8iqCnSE7vzj920r+oBZVxetAsm73tmDOuuyrwG3IKVuauV07yvAHDCrrFN7Z4emJN0WgQzV0Z7ChAv5BOfBI/mVNKkdoUY3I3QleN/wEp2vXwSvRac/kG6YTCZwikxEH2bHLI3/M4iIJfje8HzSYsOXk34w+OIRmkobQ5kb9+ch808UUMxv);strokeColor=none;spacingTop=-3;spacingBottom=-3;spacingLeft=-3;spacingRight=-3;points=[];labelBackgroundColor=none;rounded=0;html=1;whiteSpace=wrap;" vertex="1" parent="rZQSEeScumoXJ7R4sCdh-51">
          <mxGeometry x="22.142857142857142" y="17.884615384615383" width="12.142857142857142" height="9.807692307692307" as="geometry" />
        </mxCell>
        <mxCell id="rZQSEeScumoXJ7R4sCdh-59" style="vsdxID=65;fillColor=#2d5967;gradientColor=none;shape=stencil(pZJJDoMwDEVP422UxGXYU3oPJEKJmhIUoMPtm8iqCnSE7vzj920r+oBZVxetAsm73tmDOuuyrwG3IKVuauV07yvAHDCrrFN7Z4emJN0WgQzV0Z7ChAv5BOfBI/mVNKkdoUY3I3QleN/wEp2vXwSvRac/kG6YTCZwikxEH2bHLI3/M4iIJfje8HzSYsOXk34w+OIRmkobQ5kb9+ch808UUMxv);strokeColor=none;spacingTop=-3;spacingBottom=-3;spacingLeft=-3;spacingRight=-3;points=[];labelBackgroundColor=none;rounded=0;html=1;whiteSpace=wrap;" vertex="1" parent="rZQSEeScumoXJ7R4sCdh-51">
          <mxGeometry x="36.42857142857142" y="6.346153846153845" width="12.142857142857142" height="9.807692307692307" as="geometry" />
        </mxCell>
        <mxCell id="rZQSEeScumoXJ7R4sCdh-60" style="vsdxID=66;fillColor=#2d5967;gradientColor=none;shape=stencil(pZJJDoMwDEVP422UxGXYU3oPJEKJmhIUoMPtm8iqCnSE7vzj920r+oBZVxetAsm73tmDOuuyrwG3IKVuauV07yvAHDCrrFN7Z4emJN0WgQzV0Z7ChAv5BOfBI/mVNKkdoUY3I3QleN/wEp2vXwSvRac/kG6YTCZwikxEH2bHLI3/M4iIJfje8HzSYsOXk34w+OIRmkobQ5kb9+ch808UUMxv);strokeColor=none;spacingTop=-3;spacingBottom=-3;spacingLeft=-3;spacingRight=-3;points=[];labelBackgroundColor=none;rounded=0;html=1;whiteSpace=wrap;" vertex="1" parent="rZQSEeScumoXJ7R4sCdh-51">
          <mxGeometry x="36.42857142857142" y="17.884615384615383" width="12.142857142857142" height="9.807692307692307" as="geometry" />
        </mxCell>
        <mxCell id="rZQSEeScumoXJ7R4sCdh-61" value="&lt;div style=&quot;&quot;&gt;&lt;p style=&quot;margin: 0px; text-indent: 0px; direction: ltr;&quot;&gt;&lt;font face=&quot;Oracle Sans&quot;&gt;VM3&lt;/font&gt;&lt;/p&gt;&lt;/div&gt;" style="verticalAlign=middle;align=center;vsdxID=68;fillColor=none;gradientColor=none;shape=stencil(nZBLDoAgDERP0z3SIyjew0SURgSD+Lu9kMZoXLhwN9O+tukAlrNpJg1SzDH4QW/URgNYgZTkjA4UkwJUgGXng+6DX1zLfmoymdXo17xh5zmRJ6Q42BWCfc2oJfdAr+Yv+AP9Cb7OJ3H/2JG1HNGz/84klThPVCc=);strokeColor=none;spacingTop=-3;spacingBottom=-3;spacingLeft=-3;spacingRight=-3;points=[];labelBackgroundColor=none;rounded=0;html=1;whiteSpace=wrap;" vertex="1" parent="rZQSEeScumoXJ7R4sCdh-46">
          <mxGeometry x="2.857142857142857" y="51.346153846153854" width="54.285714285714285" height="23.653846153846157" as="geometry" />
        </mxCell>
        <mxCell id="rZQSEeScumoXJ7R4sCdh-73" value="ORACLE KUBERNETES" style="rounded=0;whiteSpace=wrap;html=1;fillColor=#e1d5e7;strokeColor=#9673a6;fontStyle=1;fontSize=10;" vertex="1" parent="1">
          <mxGeometry x="238" y="220" width="220" height="60" as="geometry" />
        </mxCell>
        <mxCell id="rZQSEeScumoXJ7R4sCdh-75" value="CEQUENCE UAP" style="rounded=1;whiteSpace=wrap;html=1;arcSize=11;fontStyle=1;fillColor=#f5f5f5;fontColor=#333333;strokeColor=#666666;" vertex="1" parent="1">
          <mxGeometry x="242" y="190" width="140" height="42" as="geometry" />
        </mxCell>
        <mxCell id="rZQSEeScumoXJ7R4sCdh-141" style="edgeStyle=orthogonalEdgeStyle;rounded=0;orthogonalLoop=1;jettySize=auto;html=1;exitX=1;exitY=0.5;exitDx=0;exitDy=0;endArrow=none;endFill=0;startFill=0;" edge="1" parent="1" source="rZQSEeScumoXJ7R4sCdh-76" target="rZQSEeScumoXJ7R4sCdh-139">
          <mxGeometry relative="1" as="geometry">
            <Array as="points">
              <mxPoint x="480" y="211" />
            </Array>
          </mxGeometry>
        </mxCell>
        <mxCell id="rZQSEeScumoXJ7R4sCdh-76" value="&lt;b&gt;DEFENDER&lt;/b&gt;" style="rounded=1;whiteSpace=wrap;html=1;arcSize=11;fontSize=10;fillColor=#f5f5f5;fontColor=#333333;strokeColor=#666666;" vertex="1" parent="1">
          <mxGeometry x="388" y="190" width="66" height="42" as="geometry" />
        </mxCell>
        <mxCell id="rZQSEeScumoXJ7R4sCdh-77" style="vsdxID=12;fillColor=none;gradientColor=none;strokeColor=none;spacingTop=-3;spacingBottom=-3;spacingLeft=-3;spacingRight=-3;points=[];labelBackgroundColor=none;rounded=0;html=1;whiteSpace=wrap;" vertex="1" parent="1">
          <mxGeometry x="400" y="169" width="37" height="30" as="geometry" />
        </mxCell>
        <mxCell id="rZQSEeScumoXJ7R4sCdh-78" style="vsdxID=13;fillColor=none;gradientColor=none;strokeColor=none;spacingTop=-3;spacingBottom=-3;spacingLeft=-3;spacingRight=-3;points=[];labelBackgroundColor=none;rounded=0;html=1;whiteSpace=wrap;" vertex="1" parent="rZQSEeScumoXJ7R4sCdh-77">
          <mxGeometry width="37" height="30" as="geometry" />
        </mxCell>
        <mxCell id="rZQSEeScumoXJ7R4sCdh-79" style="vsdxID=14;fillColor=#FFFFFF;gradientColor=none;shape=stencil(pVbbUuMwDP2avGosyddnFv6DgbLNbLdlQoHy9+tuHCdWgjOhb45y5KO71fDd2/7xddeQejt3pz+7z/b5vG/4V0PUHve7rj3HU8P3Dd+9nLrd7+70fnzuv18fr8jr6e/p43rDpdfzCP6qROqrF6BS/78fevShPdbQgSFU4AHUFrwxgAXcBHB2in9673rrMQE0ICeVJHIIutdRF0qoUfRF2ROXuC7ci7QDHu7i7IDBGr8mIMEfPFAo+dkB6pJ/CHNmZwanS3aRCskdNciU3OOtAzOBoTXmMalJEtbCTgQqzNxWpiRHC0qQewZ0JT0yeBF2V/UbCbwtyW0sHBLkBOxL8lhNJMlpzEwSmWziYo2qskC3gGOBqQp4ass3CguhyE4OFanA8SwUXpQ/a7DcrOWB1so/ZjiIOsB5+5Eersn8Ckiv1n8GfdcAk/GCs3sTk/ZgRO/FmWFK8phGK8i5WoMLcyc6oLHkjigrHGebo5zJNXhTkmvpupirfkxVagDAChzBmFvglRchjD31EzC6NHuW8TGk5jZ8xRpjxWO20p8x6oibFCYDOj8XupZXN7ZzKpc8VZdHhhLjqPZ2O7BUoO2KNTPzTd2aGCAWCgSBKxmI8dNbFOYJ9vKpWlWIU7aygoQwzqofKmzboG5Cx8O42L20h0O/F07/y0Uwivolku//AQ==);strokeColor=none;spacingTop=-3;spacingBottom=-3;spacingLeft=-3;spacingRight=-3;points=[];labelBackgroundColor=none;rounded=0;html=1;whiteSpace=wrap;" vertex="1" parent="rZQSEeScumoXJ7R4sCdh-78">
          <mxGeometry x="0.44047619047619047" y="0.35714285714285715" width="36.11904761904762" height="29.285714285714285" as="geometry" />
        </mxCell>
        <mxCell id="rZQSEeScumoXJ7R4sCdh-80" style="vsdxID=15;fillColor=#FFFFFF;gradientColor=none;shape=stencil(pVnbVlwhDP2aec0CwvXZtv/hqlpn1apr1Nb+fZnOAQ7JmTDo24h7syEJSeDs8Orl/vr5dmfUy+vh6eftn/3N6/0Ov+yM2T/e3x72r/nXDr/u8Oru6XD74/D09nhz+vv5+og8/vr19Ps4w/uJlzwkPLKM+nsaMYDx/8C3E/5h/yjidZAJWP79YUIEfR7uEFKHttNwxPP4mCDaKUIWMD3BgDcCwYMhS1Iz9ncCOs/terRXYAXjRwva99OL5kwKUPd4vRj4MvPLcB4LSYMPU8EjW5/bc5qQguxfA+qzBAvKiU4IcYaQveCJlz0x6/e3wylN6ErRxXPLkK/bUO+mxCLEsvRlKESIS4S84xLfHkrMLCMxQPSSvM1u1718ciWSqzwG0KaXTzXZVHnEuqKin2hKovqZg0j0VzMX/Ro6or4B7Zi+tpK+yeYPw/3nzBqI+aOC5Hp97cD38j6RcKHy2kKk3q8h1uRti5ESENWxTX6FwpoEpEOdKxKJ1km8XBLWC9rGb5iDHgZbl7Q2RyTmwJXPmjdqgSkBokTxCIkcBd2is4gbByH04i04ayRmHxJtmvzYQYhtXs3mXZRsABN7cQ8We3GX05ymG4cgGj5zgunV8x4czULI4jAv2wWij3VJRd/ioNaRNOvK2bowj8/iZ1uxz+JJa5hoYzLVl0htCdupAA6pnqyPgGWbcLzsI44fdINspwO8A60n8M6B63MdjkpppiA9Qw6MJWcoJ69SpFp1o7k8ozw/w1YspTab0PX6vJJZBeQEq7bElr1qlkECOldGc7IgiVuxrecqqkgV15qlr5xzA9m6SRBE02vDkudG+sooQza/3AiaeA4rUsOtHLi8Jsp49QmwHLI9WO7/CdYWw1zYJsj47NRoZMKGA6vdS+xWp68d6Egb5h0L3xxAloSvHwbQqllYhmKpWa30awjk6CbehqFubUTpQkfy6/5WU07rgle9crGIIgG80XkUzDntwI5um7UcE2zZtuw8Ar19RDCk7sc08Pu6Vyl2b/Zb5cyaDcvtZyNnrlJ28btcpHhRGNyCN26QMoGXtXmCfOXcIMi3YE4gATLasgjfeMYS4awVmoQPNssJo1cITqC1b/jOMSDwl5QBQbey+VHCYNOcINelnJsd6djlKI0W7BQ+l2rSPvpy99gmqJZBFwLt14YKqXQM57bgyZOfWGL586PHclfaJgRIdkIgZ2AkRq3d1HZdVqSfoGVpNL983efrRxnPDIReXD/3wECAudjSe/AoiOyggHCFQVzzR2wnLikHJXWCTOBnWddnuUsJg+8InDAIJP6lYkDgRWRA4GVkmjDYNCMM3gSm7vgyOP9oX5nu9g8Pp49U6//Tr1J56PRFC7/+Aw==);strokeColor=none;spacingTop=-3;spacingBottom=-3;spacingLeft=-3;spacingRight=-3;points=[];labelBackgroundColor=none;rounded=0;html=1;whiteSpace=wrap;" vertex="1" parent="rZQSEeScumoXJ7R4sCdh-78">
          <mxGeometry width="37" height="30" as="geometry" />
        </mxCell>
        <mxCell id="rZQSEeScumoXJ7R4sCdh-81" style="vsdxID=16;fillColor=#2d5967;gradientColor=none;shape=stencil(pZfRdtsgDIafxrc+lgQGrrvuPXrWdPFZlvSk6Za+/ZIZjJFsMa93MfnhAyF+REMPb/un112D3dvlfPqx+z08X/YNfWkQh+N+dx4ut18NPTb08HI6776fT+/H5/H79emuvP/6efp1H+E69oOuu/fB7iN+29bZvy1fR/lhOCrybl3qTYv2/8WkziNQu0VuxfAGWYdv7+cxLpC6RH38Jj9+XzH+n2cQW2iaQ3elKJoo3UdswlABG5f7pKYSTT4rYlM3rS+hZ7NJ6Em0QkaGnQ0aMeAEGaBlZDCtXLNOBmo5nDgaBdpINHK08QxdJkaZzZvEFpVjgiw9S7FYfpan7PMtX/8sRLGpNyLhYJboscnVth16Tvc51gmPKPDBl2wCkXGhluyEYuNzn5zwcu8nI5rlO4MnyRraldw8Yk4vTuVLNj2HBpVpQYS64xttSWB7L51FHDLr1OQNs2FjS5r8miN/Ss6ir18jm8T5rlheaM+9fnOHUL1NtNPNRkced03txVwmJ1jWez56D/8eSavdyKGQUlCn0bOIGNRDLoJSsV4R8u36LQnQbxFvLJk+Ky/rN4Mi2125U6K+SOMnvwVmtskXk+fZpdqC3zJZtWa3xLBWVBcLNr8EF3d8lY3M6oMRbIQS7EnUFl5cb33QQw2ylOslGpy4Wq0XywZXsjUXoSBcRFNLh1I9hyw7W5rlGO4MmudQKaWgTpodcFCPlQxJxUHmu7LSYWG7eTFjkO21Lzc6x3La5+S7Kd2rVTuWSFgo3uSDQZ5oXk6oh9mXTMYzRmQ0gChhjBcrrTzJQMbXicXaqaJKbIcMjMK+uGmyJK6a7O1HfmG/DIfD+ECf/89f5Lem8TVPj38A);strokeColor=none;spacingTop=-3;spacingBottom=-3;spacingLeft=-3;spacingRight=-3;points=[];labelBackgroundColor=none;rounded=0;html=1;whiteSpace=wrap;" vertex="1" parent="rZQSEeScumoXJ7R4sCdh-77">
          <mxGeometry x="0.8809523809523809" y="0.7142857142857143" width="35.23809523809524" height="28.571428571428573" as="geometry" />
        </mxCell>
        <mxCell id="rZQSEeScumoXJ7R4sCdh-97" value="" style="group" vertex="1" connectable="0" parent="1">
          <mxGeometry x="242" y="240" width="50" height="50" as="geometry" />
        </mxCell>
        <mxCell id="rZQSEeScumoXJ7R4sCdh-98" style="vsdxID=167;fillColor=none;gradientColor=none;strokeColor=none;spacingTop=-3;spacingBottom=-3;spacingLeft=-3;spacingRight=-3;points=[];labelBackgroundColor=none;rounded=0;html=1;whiteSpace=wrap;" vertex="1" parent="rZQSEeScumoXJ7R4sCdh-97">
          <mxGeometry x="1.6666666666666667" width="46.66666666666667" height="27.222222222222225" as="geometry" />
        </mxCell>
        <mxCell id="rZQSEeScumoXJ7R4sCdh-99" style="vsdxID=168;fillColor=#FFFFFF;gradientColor=none;shape=stencil(lVTbcoMgEP0aXneABZTnNP2PTGOqUxszxrTJ3xcLKKtTbN7Y5Szn7IVluLvWh0vFJL8OffdRfTfHoWb4wqRsznXVN4M7Mdwz3J26vnrvu9v56O3LYUSOp8/ua3zh7uOUBWvHKMkf3iM4/7VfPfzt1nu88NcoQKkQIGgEv0vvCOYjmFaBMQGBFBHMQkFRpqxtc05EciJQFlBiTiKn8hx+oo8CgQuq0YGUXWgEjlSmA6HMMs/vRnIz1TdDbsDoTXIDKJ5IW4MWlDhtHe1UZE2ngXTqD0pTgjaUdjEKNnlRroThGjRnm012mrmk0DG5yD1j5jqHMctSFyCe5HZzobe4C9D2P9x0tulHsKvfOv4clRObhkSXAl1SuWkjlxlkhmOxK6jYzdXiDvNaOjVt67daer9cY87lVyDufwA=);strokeColor=none;spacingTop=-3;spacingBottom=-3;spacingLeft=-3;spacingRight=-3;points=[];labelBackgroundColor=none;rounded=0;html=1;whiteSpace=wrap;" vertex="1" parent="rZQSEeScumoXJ7R4sCdh-98">
          <mxGeometry x="0.5555555555555556" y="0.5555555555555556" width="45.55555555555556" height="26.11111111111111" as="geometry" />
        </mxCell>
        <mxCell id="rZQSEeScumoXJ7R4sCdh-100" style="vsdxID=169;fillColor=#FFFFFF;gradientColor=none;shape=stencil(lVbbcsIgFPyavJ7hEgI82/Y/nBprpladqK39+5KSy+EwQHxLyG72wC4HKrm5HraXthLseuvPn+1Pt7sdKvlSCdGdDm3f3dxTJV8rudmf+/ajP99PO/9+2Q7I4enr/D384eF5ig0UwX79aw1M/g+8efD7vfdo7r9rAVaODE4o7CH8iNXQ8BE0DnEOQo0oGaPGIaGB6Zz8wBGhvOPUTawvQn2HMiv0DYj6WX0DtSrrG2j0Gn1jsP6xOyGvMGO0Q4IuFszDgo2NDMOuTnNQYJuw4DkqkkIS4oOdJhTHv52WBqQNtXGFMgLJxNTDtUKEeW21yFa7MBZrVbHYwf9SrcVcOQpZKLd2NpI2RFov9aW1NYjslo7njTeriK0U0b5PBIQ2k9ChQufJtimWm1BdgyEzYuFsGDDSnxhosj0RZm13YhW1cHJsFo4MbGxR1jyjOSctqenyasqaZLOE1iHCyj6EGFMncBIkZDWHRoXVcsaqbMYmQEJXGZANSTcjabAWLNnUuDgZo9a1IMxY2YPm2vDpQjK0YETsebrYfIxiYRTNpDAKeEa4eKgjzhyXeTuOWkoBJ0dUIRlBLrKtJ0C6h+WutO+OR3/Vwt/p3coN+XuZfP0D);strokeColor=none;spacingTop=-3;spacingBottom=-3;spacingLeft=-3;spacingRight=-3;points=[];labelBackgroundColor=none;rounded=0;html=1;whiteSpace=wrap;" vertex="1" parent="rZQSEeScumoXJ7R4sCdh-98">
          <mxGeometry width="46.66666666666667" height="27.222222222222225" as="geometry" />
        </mxCell>
        <mxCell id="rZQSEeScumoXJ7R4sCdh-101" style="vsdxID=170;fillColor=#2d5967;gradientColor=none;shape=stencil(lVddd9sgDP01ftUBCTB+7tr/0bOmi8+ypCdNt/bfz54BC2FM9mYrElcfVze4o4f34/PboUP1frtefh7+jC+3Y0ffOsTxfDxcx9v01NFjRw+vl+vhx/XycX5Z3t+eZ8/56dfl93zC5xI3DDAMcxSqr8WCFpT9Z3laAr5/XJcIXYYEUw9+CVGfGCwGVB+cgkkFD1pebXj/Iv5zBXNKaqAcU+WAChTleCwpKnzozmJVDjr5Gy+Ac9Q50yaqA6L/QXVg3T6qA99E7aMpoJ7GM2MCCwj9s+BxN8s1IlIDwQgi8MkFk1YNKkSHCi7nlpZHYklSLJOj0osqVedd2tgXF3lWSTflxsbpBIlWn3Wg7VybPCqhV3ZWkRnFd6Dl4jTbJANyHfIE2mYB3u1yAAGdIJ9KtIjFOQ3aSBbsc2/Q0O+Okzx4wb50ZmxhD70TsCy5yPKJOC4H36+Z+QeL1+AEtoEehQ72gJRDM6f7aM8CQhea1CNA0SZjwQr20TTGPFszgBcCKke0utQa1Uc1TNDsVIy9joNesW2xdBZQML+oXDCfRdypozxEp5lF4iZFI1CCy9P4e9ErvkebpMqzba1dvqRpEMEVcHdT+Pali8IgxsAXOUkSKF2WJRirTQystZXFRFJ6cOL/iTc/ri+BFSqxwYP2Pakc66zqov45yxyeNBhslk82cPx+gTRTX8U1YkMgDYIS+l8soG4wekMj+bF1meQpMpmUK9ionUXosqdVoZynI/a/FMrm2FmIXvkk+w6DAOfUrFfeJD3vaboErOuE5XzSbXloyK5c91xJGtowPayfIK/j6bR8wfDf5SfLZFo+d+jxLw==);strokeColor=none;spacingTop=-3;spacingBottom=-3;spacingLeft=-3;spacingRight=-3;points=[];labelBackgroundColor=none;rounded=0;html=1;whiteSpace=wrap;" vertex="1" parent="rZQSEeScumoXJ7R4sCdh-98">
          <mxGeometry x="1.1111111111111112" y="1.1111111111111112" width="44.44444444444444" height="25" as="geometry" />
        </mxCell>
        <mxCell id="rZQSEeScumoXJ7R4sCdh-102" value="&lt;div style=&quot;&quot;&gt;&lt;font style=&quot;font-family: &amp;quot;Oracle Sans&amp;quot;; color: rgb(0, 0, 0); direction: ltr; letter-spacing: 0px; line-height: 120%; opacity: 1;&quot;&gt;PV&lt;/font&gt;&lt;/div&gt;" style="verticalAlign=middle;align=center;vsdxID=172;fillColor=none;gradientColor=none;shape=stencil(nZBLDoAgDERP0z3SIyjew0SURgSD+Lu9kMZoXLhwN9O+tukAlrNpJg1SzDH4QW/URgNYgZTkjA4UkwJUgGXng+6DX1zLfmoymdXo17xh5zmRJ6Q42BWCfc2oJfdAr+Yv+AP9Cb7OJ3H/2JG1HNGz/84klThPVCc=);strokeColor=none;spacingTop=-3;spacingBottom=-3;spacingLeft=-3;spacingRight=-3;points=[];labelBackgroundColor=none;rounded=0;html=1;whiteSpace=wrap;" vertex="1" parent="rZQSEeScumoXJ7R4sCdh-97">
          <mxGeometry y="30" width="50" height="8.88888888888889" as="geometry" />
        </mxCell>
        <mxCell id="rZQSEeScumoXJ7R4sCdh-103" style="vsdxID=21;fillColor=none;gradientColor=none;strokeColor=none;spacingTop=-3;spacingBottom=-3;spacingLeft=-3;spacingRight=-3;points=[];labelBackgroundColor=none;rounded=0;html=1;whiteSpace=wrap;" vertex="1" parent="1">
          <mxGeometry x="300" y="169" width="38.5" height="30" as="geometry" />
        </mxCell>
        <mxCell id="rZQSEeScumoXJ7R4sCdh-104" style="vsdxID=22;fillColor=#FFFFFF;gradientColor=none;shape=stencil(lZfbUhsxDIafJrcaW/LxmtL3YEoomaYJE0ILb1+lG8trOeuFu2Ck/WxL+iVv6O71+eFlu0Hzej4df23/7h7Pzxv6tkHcHZ63p92Zf23ofkN3T8fT9ufp+HZ4nP5+ebhYXn79Pv65fOF98osOEl680HxMKymCp/8r3yeH/e4wd8hgUutAQHbZITnA3DokcHnu8OPtNO3JyhdD2VRZspAmiHlHWXLuanVdigg2Xq1IDpiL1XUp+LKjBX7IEF3L9xlybvkBIfiW7wNkavmeYbbls1VMI/7cpyxFwNTy51YoVjGu8xNgHPIdxBYfUj1YYVm5Ebn+DJRavON9hxbP4c9+hHc1ioWfOSldy6cIhlp+Zj62fCLwueVXqwU+IWTNZx91frYi1/FRXT9ZiNTxbRjxEevJ6vkptnwbwCh+QoEVviXJCEn/DIFGfIvVp8TfgUXFR0Bs+ZxYEiUSq+Io6YelIm/qhWm04kvGLgyN53tZcLhxFejbq3AWLHVXkWJ7FeSBfBeKrEoBORRjfgSrlMhaUezCR65XpUQGdCKSCGihF5ulMmClzy27fvWKcRxxdXJX2keVIJZzdXAy5V6XJYjUwanPQbZKSgIpgVEawBJoVA1wEMeBn/tUWXJe8WdWKFY3WkDHp9K7lloQlsyofOpaAJdyUoF3pqhLbYFeMlbunzNmqEHcXIPSIIx9C+bIqh5gk2Rs4c8ngFIL3LubFrg2ZLDahTxw6MYYrkkXlx14yin1+TGXkpvGrNgpfeXr2VfV/9T+s5Hc+pAb8sMKSbwpLQ1JFEYiVBunVIiRcEiGsA6pDOU6isMMjQFQZyjfisqQ2E8JzkvjKPzQTwkrWs5DhG0vbM2Bp9TWHktLX0oQFREeOPIghNaoZiRJs/j9dizmkh/th6u/PQB3WzMC8JQdWodxLw0BUh47dDnQqwRLctA54EGlgJ+NMzUFpSBLVtgR+1LBLZrV0KkhkYtE6XMy0qsLmouvjK2zGXWUHH19c3jsqL47BVl5ZvX6VPLrk/q39oxbd+Af9dX4tNvvp0fn/P/6lclL0wuV7v8B);strokeColor=none;spacingTop=-3;spacingBottom=-3;spacingLeft=-3;spacingRight=-3;points=[];labelBackgroundColor=none;rounded=0;html=1;whiteSpace=wrap;" vertex="1" parent="rZQSEeScumoXJ7R4sCdh-103">
          <mxGeometry x="0.45833333333333337" y="0.3571428571428571" width="37.583333333333336" height="28.928571428571427" as="geometry" />
        </mxCell>
        <mxCell id="rZQSEeScumoXJ7R4sCdh-105" style="vsdxID=23;fillColor=#FFFFFF;gradientColor=none;shape=stencil(lVrbctw2DP0av3J4vzyn6X9kGqf21I0zjtMmf1+oKwLk4QrafVvLgA4J4nIA6iF8+P706dvjg7ff399e/3r89/nz+9ND+O3B++evT49vz+/06yF8fAgfvry+Pf759vrj6+fL398+bZLbr79f/9ne8POiV7OxedPy9tflSTC+/f/g94v8y/PXUb6a6Cb5ZHI4lm/WlDLJF1O9Ip9NmtfjgikaQDR+XpDjLR2tKIVZwatboC27OitYsNEfP94uRnW7SjHN7yqOV3VRsT89m9530+yPfDNxh/oZdnORveIutT8KdAZFgy/R1DTDR2dSnPGLM77O+DHO4LmYEGbwmIyKnYMJFbCLAejUjAsAXU2YwRPtAsFJaEKHk2qmzCd1pkC+lWYF8gXN/bNxs7dFa5yCsPpzbKYlFcFP8tmaoARM5fDggCSP0Y3UZoTk1AhLhNB0BXSCNISME53ZCbKXQOx+4dla7IJkwB4l4hg+qv5vTYbwS4l3zf4fF/+ndYc241P8BYi/TLHk1PBPBnZPK4oJwr+Y1GZ4OksL4T9mksAHuHv5UX7zc8atHMU3ZlBahwawuDT5rBZlWw2Y5Js3mkdXsTivMEVFgc52dlBaohoCwcQFwWoKzrSIW1BqTEkmpXtMVKqxAc+gaUZyJs+pbvMnzUhkw3kHtpv5yIvJLyCKhkfsxt0Q7MWln67EUOzHITEU+4aPYthLpu2lhQoWBFGuBkO4GZtm+JyMyzM85ciklzGKcUwhWaLT82uyA/zE3suFLJiMKSz1RHOUQQcdwcftb1KYQgvbbcBPYdl/qyf4i/krm5Hx7ZLDyJMdFPI4FE1Ja+rpE13JeYanEC2w/VB6IWB4ivwM5g8USQAvUgf4YWUx45s7vhduNuADvDdhhU8aOnHwXoaG3Veon64Iy+vBaBHdpYVEbTGjnr2LQqOE1WHgu6FsiO8hfSUph76n0w0y11xd7pUnzucVgjWu6EDhikEceGOUUx0MUiAYQ2Y3Ug4kcEdyhF/Fz2RJFvCpE2twIMFAKgxR6kx/ZKIKTt1GAXBWYWyi+B4TQa+okoc8P2JwZ6yeB70Y1fEeCubhIHzT87IjUDmSisCl6Bi9zmQHnX70QXYm+EhlSaphQ0NSFfAjdMMLfhEdJzpYBqW7k1auW3asgx4bKn9WB+vSyVJutoC/lXxoZQNXZmYBSUYN/fjJZVV4YhcVyhA5VgHPr3GpAxRmGVIhSUUwf4MysHAsmF0434njjSyOun6nUOmVJ7rQQ/2QiM7Zjgqp1k0GOfL9QCHglu7zvnHQqfzZuMkqL49SBnfr9EM9Mk6C9t9ETd5K0tqjzRR/LF9CL5yDP2htwxYWMJvSh1lXEFIvb9cVcj9+VijqAOOKizbVg0qD5u0EYGtMHG5BpRt0DEg3qKgj16I+vEGKpfDFElOkNP2SkhfUbn3oIXqFaUuG24YVmGGdqVhhEj8aK4xi3lGDFaxeEpKQfqnRwM5IyGFGjgYbkyhNjnCRrDPztsxWMucYpgO2B5IkZANdSViZYZe5aqmNxs89OIgvLDouLZwsoq8q9/orCyX7g50oalNb7ORU9G2oDJWLql0AQw1gv8R2GUzl3OpWTPauGsvOLnWPMDmFNj4f13KgcMUUFg5iGwBjO+OlFvago7qO/Uzos2/pZ1qf4x3hD5RbeAXSd3KOApMM6tN4aCiEFUcZrXbFIwY9DDod61TgsOTf2E+RVEMCHxZXEKkj/CK5y61v7n7nhVp0/LL28lXOsvOqs+uIxDN1mYdWHtkNGStAKFJmRhJHUjyx74+qcWcJEzsY0rF4JzFIST+L9r+Gj/P2pcAM7FjwMWfm4WaNaf0MXoYjEk6vTzKobia4CyqWkx4zaGsg9kjPAzyVdoy9imO8E/JAcec1PryOQbEenfGfM4SFYdEWslcUFg633dDch8DU5UYa2jjv3diXNPbKG4l0qzD8PaP1zmpEveAd1Mn7m+XmVCb2VilRzS8Tex6QXleocnPJi6xaXbNzGdxOWVvQ+v7YA+26Qurwg6dqABFvnclPtG6mebzX3gAUz94uAhtuYQ6Fhaq3pZJTCxshk9dhztAzWZZ615NZWyeD7WQcQOHeoJJuI3jIpCXK8FaSO46Fi7t2sahRn3HMcJuC5z6iK+hetR0xfF1xcpm7IjSjZwIAyO7sOtrObphD56eHuSDdg0CR5JbrZQ2hNZlz7qSkqfy2ycXFMPHVrFrwco0arKDk/O0GEsYgGUjhmpEjIkTtHFy/sBk+PGjaHuwyFycapiEsrhRPylCQ3mlX0PsMijhIgYvClS9ZkDrSqjpPHGYDHujLOJ+XhBNx/th6T3l8kx+BPREDR+pY189ZttETzCbGfCuXAVGveut0p2h1NWBKd81o8kluGW8DoFCCJvxkC00GuLtC6OzlVgQPrfZqpHkPWXVb4h6YDfQkXgyM5NQR3n0TTl2Yfsh3e1+eX14un/2N/8fv/OjR5RvB8PE/);strokeColor=none;spacingTop=-3;spacingBottom=-3;spacingLeft=-3;spacingRight=-3;points=[];labelBackgroundColor=none;rounded=0;html=1;whiteSpace=wrap;" vertex="1" parent="rZQSEeScumoXJ7R4sCdh-103">
          <mxGeometry width="38.49999999999999" height="30" as="geometry" />
        </mxCell>
        <mxCell id="rZQSEeScumoXJ7R4sCdh-106" style="vsdxID=24;fillColor=#2d5967;gradientColor=none;shape=stencil(lVPLUsMwDPwaXzWSLb/Opf2PDk2Jh5B00hTavyfBNsQwNXCT5V3tWpaE2pzb/akREs/TODw3b+EwtUI9CClD3zZjmOZIqK1Qm+MwNk/jcOkP8XzaL8glehlelwrXyCMD2i0sibeY0RbMR2IX8V3oV3hHQPofeKNA2wLvLPj7eIugfYEnxPvwfJnB7MDpanVZuq/U/mmdJDBXeoNgyl4yVglkwVKd8HgZ43dRohD4bCqlmEGmll1lsg6Yn5kybEGaBFLrp+MtHdmDopq0BsOlsqZM+VSe/ZEvpTUDulJ6PXXqL2P0+5jOwdeMH0PXxRVZ33/fiTkV90lt3wE=);strokeColor=none;spacingTop=-3;spacingBottom=-3;spacingLeft=-3;spacingRight=-3;points=[];labelBackgroundColor=none;rounded=0;html=1;whiteSpace=wrap;" vertex="1" parent="rZQSEeScumoXJ7R4sCdh-103">
          <mxGeometry x="23.375000000000004" y="11.785714285714285" width="13.291666666666666" height="6.071428571428571" as="geometry" />
        </mxCell>
        <mxCell id="rZQSEeScumoXJ7R4sCdh-107" style="vsdxID=25;fillColor=#2d5967;gradientColor=none;shape=stencil(lVjbchQ7DPyafVXZlq/PHPgPCgLZIiehlnD7e2R2bI/bO9ribeNI07YstVo+8Ztvj++/Ppyc+fZ6efny8PP88fXxxP+dnDs/Pz5czq/y68RvT/zm08vl4fPl5fvzx+vfX99Xy/rr/5cf9Qu/rn6FKbjq5czv60ouVMLflXdXh6fz897BkuHJoTgKee/w4fvlCmE3A0MxbS7bUg7kryu/3LaSKTWjbSlZynmz4m2p0Lbye1uJjthq6ClSCDN6yFTSDJ8cxTjDh0jsZviYidOMH3wL4AF+9GTg9MFRcjN+KOQRX45vZ3wBg+NXI6/B71zaiqFQAH0YbSu+EPt74D6TVWMvp4LQVxc4ugTIwtF9Igs3L6H3BeBD2+PR1TvKDvAl3+2MLwmSGPBNd2z42czgnMir4JLQBQ7v0vis67UBWW89cZixxahA2iVySSlSJt8ctpVWXbftU7+nbRNMirk1Zra25NTN5Mlc8kgnmJlfHCnWEuX540axDWDLiq0nH2DXrOwjJUoYE6OEMBtixpAHzcFDWIpuLgky71+yfNr/kq+JDBSLbAnSVULYvrqtyHdNYxPusejYrVo8Fb1UPTngKamwkmf4JNXil1JlpIo4yr5RhSOjMpW0kTLDC1NEBprMFAvAjzzZ8aSH41crnSh3PgO/dYQdTXsIvxwsrDztgC28pXivS/SuPsIfoUcHHq10W2LufbPju1bfHb/Sj9okhfDx9ilDi+bcu2ZDN2Qg+LKfTuYMRgfYDgJvlg5lE2a9VHcTAg258nZajj1zAEJLgVk8dxiqo4G5Jez1QhHfEWZdJjPd+kwRM4f/k7GojhSPjXdbObBfAuEamw2ZIuWPgZBwQSCquoIUkItA+hHe0IWKjeSB/LIowhleOhHoBOmbhWd0to1nO3opFFWBzF3DdnTxSUB+YpVBpYlVRnxe2GdYHeHHoS/s+uU153bnB+71sQn7hp7voUtyWChB6Y4GVJpwT4box9J7qMJ9Qtq6UNv7jNwLkHti1epyNyCEsuD3PGpLoTHkEX5uidbhxQWOL/0phQUemF8aX0R0ydCioUtpeBwQShvoRuPl9pkRfbvkvijpAvhSn0WtPFEUjW4bftr1lKY7dl8eSwHwRcJYzH0mM9XeoqrsTFWitVWHRbfJPuyx/aILq2DV9KxflLskg+YQx3jZi1JVtnm05438jCKaqxwP+H1NvjN+XntNwEniTnSWOUUP/r8/btx3mJ9PPHY6ScGgsp3oVUh3iTDoLOHjCMUuWbAw/XhF6Nkemow70jppqbYC4M4uRJdH3+1NNvfq76VeyOlNVroFiOwo3QrajFgxaPxKx9BnqhUwnTReJRe4wPB3z15mnzkVhKddURzCuI7tcAa4b3aQVglzcWkPPkcAwFWiiLMyA0qCxNlBWnhQRB4XyOYqCpUjyyU43f5GCjhodnU0g15bEwV6vRy+wJxxIwVFcOvdrl/p0J0tRD3/1zHDj+e6obIizlikSn25Kxxwm8dQWP7GnOFB50uMUeKwgWu9IbEYTu5vjHdmoZ36BAth98ucsXAe5PldjpQf43360/np6fq8vf8/vmfL0vUtnN/+AQ==);strokeColor=none;spacingTop=-3;spacingBottom=-3;spacingLeft=-3;spacingRight=-3;points=[];labelBackgroundColor=none;rounded=0;html=1;whiteSpace=wrap;" vertex="1" parent="rZQSEeScumoXJ7R4sCdh-103">
          <mxGeometry x="0.45833333333333337" y="0.7142857142857142" width="36.20833333333333" height="28.214285714285715" as="geometry" />
        </mxCell>
        <mxCell id="rZQSEeScumoXJ7R4sCdh-108" value="&lt;div style=&quot;font-size: 1px&quot;&gt;&lt;p style=&quot;align:center;margin-left:0;margin-right:0;margin-top:0px;margin-bottom:0px;text-indent:0;valign:middle;direction:ltr;&quot;&gt;&lt;font style=&quot;font-size: 16.93px; font-family: &amp;quot;Oracle Sans&amp;quot;; color: rgb(0, 0, 0); direction: ltr; letter-spacing: 0px; line-height: 120%; opacity: 1;&quot;&gt;&lt;br&gt;&lt;/font&gt;&lt;/p&gt;&lt;/div&gt;" style="verticalAlign=middle;align=center;vsdxID=27;fillColor=none;gradientColor=none;shape=stencil(nZBLDoAgDERP0z3SIyjew0SURgSD+Lu9kMZoXLhwN9O+tukAlrNpJg1SzDH4QW/URgNYgZTkjA4UkwJUgGXng+6DX1zLfmoymdXo17xh5zmRJ6Q42BWCfc2oJfdAr+Yv+AP9Cb7OJ3H/2JG1HNGz/84klThPVCc=);strokeColor=none;spacingTop=-3;spacingBottom=-3;spacingLeft=-3;spacingRight=-3;points=[];labelBackgroundColor=none;rounded=0;html=1;whiteSpace=wrap;" vertex="1" parent="1">
          <mxGeometry x="120" y="149" width="102" height="40" as="geometry" />
        </mxCell>
        <mxCell id="rZQSEeScumoXJ7R4sCdh-111" value="cmp-adc-cequence-prod" style="text;html=1;align=center;verticalAlign=middle;whiteSpace=wrap;rounded=0;fontStyle=1" vertex="1" parent="1">
          <mxGeometry x="365" y="369" width="152" height="30" as="geometry" />
        </mxCell>
        <mxCell id="rZQSEeScumoXJ7R4sCdh-112" value="" style="rounded=0;whiteSpace=wrap;html=1;" vertex="1" parent="1">
          <mxGeometry x="30" y="150" width="150" height="244" as="geometry" />
        </mxCell>
        <mxCell id="rZQSEeScumoXJ7R4sCdh-113" style="vsdxID=4;fillColor=none;gradientColor=none;strokeColor=none;spacingTop=-3;spacingBottom=-3;spacingLeft=-3;spacingRight=-3;points=[];labelBackgroundColor=none;rounded=0;html=1;whiteSpace=wrap;" vertex="1" parent="1">
          <mxGeometry x="111" y="179" width="30" height="30" as="geometry" />
        </mxCell>
        <mxCell id="rZQSEeScumoXJ7R4sCdh-114" style="vsdxID=5;fillColor=#FFFFFF;gradientColor=none;shape=stencil(pVZBctswDHyNrhgSIEHinCb/yCROralrZxSndX5fsiIlERqpTXsj4YUWCxCAO7p7Oz6+Hjo0b9fh8u3ws3++Hjv60iH25+Nh6K/p1NF9R3cvl+Hwdbi8n5/H++tjRubT98uP/IXb6GfA+OyE5mM0WGN+3x9G9Kk/76EjAfMS//Q+jJ+3xaPAyzUwRDuabjiaEAIWULEEA1hMNyom4AoqFvZAbo/ZInhs2dmA8y27FVDsPnGFlh0ZrLT0GWW3E0UEwk2mPu3gIpDsCSQLIbYCHQO1+mhRsmJyNNegCowQQyvQWTC7lc01kZaeoqZPIBNaekqF84o+VK6JnhAobKdr6VEKGYDwD/FOLvU9AOt0EaC08Zo21pQ9VKnaaZiAINLE+SnwKgtaVHbxraicX6UqoUi98lQqZNVjFqxqMmdqRBv8LCCqyVKCgmpxjnP/4PRSbWz5mcFo/hSl207Y0uOvuizQpHrLYZVhhhBahdmnFRjTxCI1RuL0TqrANCydejpewO8WOPKUzcUUq8068UsdwxM/p7kqLb8gWLeaorgrX9w8eSt/WLWNMHhV4DTEVZdLAFH0qR68K19k7sfFCtH0MjfOuiKVv262iX21vNrHMuP/ZTP+Fzod5oX90p9O475f/q4XfDKNfw7o/hc=);strokeColor=none;spacingTop=-3;spacingBottom=-3;spacingLeft=-3;spacingRight=-3;points=[];labelBackgroundColor=none;rounded=0;html=1;whiteSpace=wrap;" vertex="1" parent="rZQSEeScumoXJ7R4sCdh-113">
          <mxGeometry x="0.3614457831325301" y="0.35714285714285715" width="28.915662650602407" height="29.28571428571429" as="geometry" />
        </mxCell>
        <mxCell id="rZQSEeScumoXJ7R4sCdh-115" style="vsdxID=6;fillColor=#FFFFFF;gradientColor=none;shape=stencil(pVfbUttADP0av2p2pb0+U/gPpoQm05QwIbTw95XrvcqTdYE3R5F8VtLR0Xqim5f9/fNuQvVyOZ9+7v4cHi77ib5NiIen/e58uPDTRLcT3Tyezrsf59Pr08Py+/l+9pyffp1+z294W+K8Bh3nKFTviwWBwj/D3eJ/PDwN/QnBxzbg++t5QdA1xKeQZCILbrG8YXJSYJPpPZkoACWoN1pMLoJJTsliFEQ3QncB0PbohsCaHt45sL6HNxaCE/AGjBf4XmTfl6uNWCw2gMNBfbmadhywqq/r05sDtKhuBMQ+Pcsm6tMLWEw5PafA2BF4sICmx3canOhu8BBDj+8ov7ngRwUYBL4FP4KPCDYKeMayPXzkLoj0mW+pqhWeSSm66ynT4hq+g4g9vmcqifJHv2IXdySDFfzGq3YkdOzuydJGFMuIXQgmfMl/dSBZEI6gVT1M7Oth8sy27SAxbLGUsSFD0CNwbUAJpWEyou/RURVTGQYemdDDowMvurExuixqRcI+GcBqEmmUIfHUiHFjnYqivqSriOSSEzgxbqTq7GQ106DMsL1x1V+WaSPUFAME0+PPii/kZvYScrPaJYKOTUTqeIAhI9qIrFiAQp3IAPWnLTuwHJbrZwQdP7oov+ovFjcVAUv+6vrL59PTdecVyxCiYJkSHXb1hVnQM3XbETKiwbJfor9OHnPzcjGHiKMyIQNOK0IKxTGmbsnMPgLt+vOaIAZSTHATkUbe5X14LUPvxwErUYtlcsqGd5mwOUHNuiwkLYI2fX7lqlIV1YAe6g2XP/TYfAXTorqqR/bri5MCZXvkjc3WBKQE1YDe+c9POW+utBjr5UWXFL3QXN6kuq8DV0rJKwZOsv5qWP/AUyV6H7NEt7c7ebuqrKrdx/VCG5PVNZebTwbw/Gx/HIji8mSK+9t8DYt9gjzkXtyffF1x/7lP2ohNDf2Q4G4480P9IHs8HI/L91z7v/yAY9Py8Ue3fwE=);strokeColor=none;spacingTop=-3;spacingBottom=-3;spacingLeft=-3;spacingRight=-3;points=[];labelBackgroundColor=none;rounded=0;html=1;whiteSpace=wrap;" vertex="1" parent="rZQSEeScumoXJ7R4sCdh-113">
          <mxGeometry width="30" height="30" as="geometry" />
        </mxCell>
        <mxCell id="rZQSEeScumoXJ7R4sCdh-116" style="vsdxID=7;fillColor=#2c5967;gradientColor=none;shape=stencil(rVjbUtwwDP2afdXYlm96pvAfTFnKTinLLNAuf1+l8VVpvKH0bTFSjiUdHSnZ4dXLw+3zfmfUy+vp+H3/63D3+rDDLztjDk8P+9PhlX/t8HqHV/fH0/7b6fj2dDf//Xw7WU6/fhx/Tk84z34BgXDyMup9PnEEyv05uZkdHg9PjYN3YD7pYAP40Dp8fTvNd9LJJYC1ySUdWQfez0dnk6wITDJKJxbBpKMzpvgU2GyVjqwCp0fwQYMX8Bgg6h4+GDCxx0cLMQp8A9jDowYy6+lqHOYDtW7L8ep1WxkWIrg+KtVHZAIEEZEHLQJqjdKR9jCof+uwkgF509ZFl9SSKICJYHV/3alMXtyXwIsKTASgYaYURMk/BMQeHw14SUAHgXr8iRNO4PMtBwxoPTZ1mHHg4thBRqgjBEEG9tGmj1Cb2rqZEBoi9hE2zZpOvAc/rG/p5ffachh7cNUDh6YDE4zKQRbgaEdMbOxTfGrUXID0CWt5FZkDdhAUCxHICokDZ0UasNQ6p0EXPasFYNIPJU5bsKLDWKe9YLgmoB7ecxsE0WAN+7BaDfjNUfUSN7Z3XLde5pgLo4HDKTLy+SPFXYxAab8YEJxeEtljKaY+e9HJ+cQpzsMoZy9SnSK1eHaETpwt0buhKUvCIi6n6+GZYEEUj+pYbXrIrierddjQFvmf/2R8qYWI6SnKwMwIoocoLESM1caIMUGmJrWqmB2OicjKJ3SM5TEIEY3NMDFVnm2P35IQN6n+hs2tX/WsAQqdgwUz6qMA5If2f9vb+nywNpEgpregfJ8PXR5c8uFi2TzKmjG+Lo9jLQT70n2nCS5UkOpN8pgXXbS8a5tY3JLZy5XoK8f3VH1oF5bIpQMPfD9waNO94iCTx2wjkbxpqxDF1kVySrHjQgRZPK1oPh3yJrXGNQcaBXwALfF9ftWo+H7xktAyPeN/qDEubrTsEuVGW4f7uc4HErflXZUE3bypryeZbsyf4bznYqHu8XkLtWLlcrbsWAWfii6W1lSVXFis7DB+XozlzKo+BZ+DXeCHxb6DjezW+HEEzyu1jF6DEujcNJkY5X2CayQmZmu17Y3uP3TvwqHXh7YiZcLhCIFlznYOTJD4IfvCy7WKG3BiODoDQbzDW25GsWI6rCN0nXHVao3xWF4Y3/XyyRks1HXG1FuKNxyvFgLPV4ojiVBS4ccJ/nAFNzjwj/rV5/7w+Dh/NGr/L78S8dH8hQmvfwM=);strokeColor=none;spacingTop=-3;spacingBottom=-3;spacingLeft=-3;spacingRight=-3;points=[];labelBackgroundColor=none;rounded=0;html=1;whiteSpace=wrap;" vertex="1" parent="rZQSEeScumoXJ7R4sCdh-113">
          <mxGeometry x="0.7228915662650602" y="0.7142857142857143" width="28.19277108433735" height="28.57142857142857" as="geometry" />
        </mxCell>
        <mxCell id="rZQSEeScumoXJ7R4sCdh-118" style="edgeStyle=orthogonalEdgeStyle;rounded=0;orthogonalLoop=1;jettySize=auto;html=1;entryX=0.319;entryY=0.164;entryDx=0;entryDy=0;entryPerimeter=0;dashed=1;endArrow=classicThin;endFill=1;strokeColor=#0000FF;exitX=1;exitY=0;exitDx=0;exitDy=0;" edge="1" parent="1" source="rZQSEeScumoXJ7R4sCdh-127" target="rZQSEeScumoXJ7R4sCdh-107">
          <mxGeometry relative="1" as="geometry">
            <mxPoint x="120" y="203" as="sourcePoint" />
            <mxPoint x="311.3208333333332" y="167.33178571428573" as="targetPoint" />
            <Array as="points">
              <mxPoint x="143" y="203" />
              <mxPoint x="210" y="203" />
              <mxPoint x="210" y="158" />
              <mxPoint x="311" y="158" />
            </Array>
          </mxGeometry>
        </mxCell>
        <mxCell id="rZQSEeScumoXJ7R4sCdh-125" style="edgeStyle=orthogonalEdgeStyle;rounded=0;orthogonalLoop=1;jettySize=auto;html=1;endArrow=classicThin;endFill=0;dashed=1;strokeColor=#006633;" edge="1" parent="1" source="rZQSEeScumoXJ7R4sCdh-119">
          <mxGeometry relative="1" as="geometry">
            <mxPoint x="238" y="260" as="targetPoint" />
            <Array as="points">
              <mxPoint x="113" y="290" />
              <mxPoint x="170" y="290" />
              <mxPoint x="170" y="260" />
              <mxPoint x="238" y="260" />
            </Array>
          </mxGeometry>
        </mxCell>
        <mxCell id="rZQSEeScumoXJ7R4sCdh-119" style="vsdxID=111;fillColor=none;gradientColor=none;strokeColor=none;spacingTop=-3;spacingBottom=-3;spacingLeft=-3;spacingRight=-3;points=[];labelBackgroundColor=none;rounded=0;html=1;whiteSpace=wrap;" vertex="1" parent="1">
          <mxGeometry x="90" y="310" width="45" height="40" as="geometry" />
        </mxCell>
        <mxCell id="rZQSEeScumoXJ7R4sCdh-120" style="vsdxID=112;fillColor=#FFFFFF;gradientColor=none;shape=stencil(pZbLctswDEW/RlsM8eAD6zT5j0zi1Jq6dkZx2uTvS5eiLEKxXE93MgzoUJfAJTu+e9s+vm46cm/H4fBj87t/Pm47/tYR9fvtZuiP+anj+47vXg7D5vtweN8/l9+vj6fM09PPw6/TGz5KnUTwcqoi91kiqkDxb+ShFDy9D6UCSwITpFoyhhTBUQl9UAmRgNMxawzFCIpjFo9ZDOLHrDEUGLzO+bt+P1vwvKJEfADGywXupmQgbPMZMKyp4SD5VgxhUG7F8GeRxwh7UGq1QAKfWi0Ywfs1OgpQavHsptdUPGZ+bPmUIIjh5yVpy6cAsvr1GMGFlo8Kaloha2RaIa/bB9MKAYhbPGItvIDPX8EW7yCYz8+KVK0nvgPUls8MFAx/yro0Cjx19IyP5vtZgPk6X0Bv5nvAeJ3vQa7jPQS8FR/rMK3idTKHyleQ2OLFne1iDCVwuEYXAeSWTmeDGUmii95zLTk7gjNj59awIe+mtljXMmNu29AyPbCZtpg3xWDROp9FxwBILRrDwnmzzSbbbnGCTXyFKIYfawde4Cda7nf2EbPfSSB4w1cIZtxTgGjdBus0X+BrqAKddzzV3p7MzrkWnv3YOK1KtbWJ7aX6+JfngjKkqvw/HSQxO0P6v4LFQbhoBwY2Z8/8iKVlv9bxcxBNO8znpKpkLwLtgiVZSaryX6dfv2jcXJAfzveal363K9ei+f/2HpRD5Q7F938A);strokeColor=none;spacingTop=-3;spacingBottom=-3;spacingLeft=-3;spacingRight=-3;points=[];labelBackgroundColor=none;rounded=0;html=1;whiteSpace=wrap;" vertex="1" parent="rZQSEeScumoXJ7R4sCdh-119">
          <mxGeometry x="0.5172413793103449" width="43.96551724137932" height="38.94736842105263" as="geometry" />
        </mxCell>
        <mxCell id="rZQSEeScumoXJ7R4sCdh-121" style="vsdxID=113;fillColor=#FFFFFF;gradientColor=none;shape=stencil(pVjbUhsxDP2avGosS7490/Y/mBJKphSYAG3691W6a3stZ72hfQtG2rO6HR/tjm5eH25f9jtrXt+Oz9/3vw53bw87+rSz9vD0sD8e3uTXjj7v6Ob++bj/dnx+f7qb/n65PVuef/14/nl+wmnycw6CPXtZ83s6sUDx78GXyf7r+3FywOn/noBx9kDlYk52OgkGbJiN8hGQn41oPiGI+UnzETqwI/DAELkFxwBOo/sa1HyESWFHCElhp+y1Ah4RTFCRGyhPnpEiAanQLQJyix8lUG7xJY3DxCcuaS7wCdi18EnS0aKzhaSiTxacyrwjSE30j4enRZ+IR3aY7aUSYd0+SE+4/3OQRsNhQgLWMmNX+ZwQeYzFNiMxlULmjHCqDUslk+jWX5gj+PaFxYHS0MFQ6+Ah4ShCYjCpjTDGMgE5QiszHNsIJQ+sam4Zkuo4L50xiHDpcVUNLdj0MXvVIvI+YZgPQFVwZmBV8ABWZYM8RNtmAxmQ2mwQgRnOP3qwCp4QIrXwwkfs1fwn8KoaYhVji39myDG+cJZm3gWzZDCpgmIAeXF0Lb6AGRU/Um6jFXwJQ8Gj7cKXjLBCF+rAFl1SzWraqtVa7almDPsnZ3iuzDbAl87W0W/iu9oxA3wHdEX8Dpz7KH4AfwV+qjOY8aVH1M3LBoLCT+BG6DJnXjER12tlRnIGVO4XyiDfMwvBQcroIklsK5QtRWOGgckVqtrKtFExgdcDDVHNEyVQCRW2H04TxcoT+YYH61tsKbq+vESlKC0h3ZT03ZWN1ps5dOBBMcmyS0fgupU3wRfTtw7eD/IFcOpYdBO88tMqttROz5CpQit3rQevGhnzs9cI1FTRmUeYC1ufKltHTSEpX9T1ApG8KwF7fqMRvLigFpCxyJ4Czx2DSYpywU6VrnTmyYAfhu9qwhacqqI3XfAyf1ahmzoVmVYsBFonkYVDUSZ+ZN8ay2WJ68a97Nmwt1kV/bODKLfwUYc0JHjRVmq3CSJk9OVuy1EZSgOqM9mXi6EMpQjukZQO4Ju3FXs3qE4vvdGYgXmVX9c9X+4xQu1ghunzXDOOJTOaWJYbry1Z9moXkSWXlTrpdiG1PC08ruqofp3bsKdKCtc6JNXjLovwyw6L7baMaBxuA7noVZHYTpLIisV6Gw+Fhcs2XtelQqYm12XtawCX1b+Quf4UgHm/q0weSgeUcqeOzcSKhlQqXeP0dxC5NpR6kC1QTatcAV4JsuB6Lc6qtlds3q6ombJ4c/3Ekcm9hb6gBQdjvCHs5Ef9yHV/eHycvpEt/68/isnR9EGNPv8B);strokeColor=none;spacingTop=-3;spacingBottom=-3;spacingLeft=-3;spacingRight=-3;points=[];labelBackgroundColor=none;rounded=0;html=1;whiteSpace=wrap;" vertex="1" parent="rZQSEeScumoXJ7R4sCdh-119">
          <mxGeometry width="45" height="40" as="geometry" />
        </mxCell>
        <mxCell id="rZQSEeScumoXJ7R4sCdh-122" style="vsdxID=114;fillColor=#2d5967;gradientColor=none;shape=stencil(nZfbUtwwDIafJrca2/JJ1xTegylL2SllmWVp4e2rkMgHpfFQ7naNnC9Iv35pJ7x6ebh9PkzOvFzOp5+HP8e7y8OE3ybnjk8Ph/Pxwp8mvJ7w6v50Pvw4n16f7pbvz7dz5Pzp1+n3/IS35V6OQHG+5cz7coIZkv84uVkufH89LzfsesVDovXKeoQRzHLHvLk1ykG0a9R6hAgpr1G4RhmYv39ErUfoIOcRPyXIqPgWKPf8FCCnnu9yuSh8jjK25zsP6IZ8C2h7PoGPPT56sL7Hmx4dIiiyGVFDkynbP3B9vvcQYo/0pbhC9QZi7LEWJWoHjQRWJdwmCKnHswZIJdwSYOr56MvFws/g05BvIah/ne8Y1/O5ukkJjqPI9XzHSqWe7yzEYcE5QNWbnyIZETxnBKnHY4BAPd7Gqh2pSIQcRnjbKFnEwBIMiu/LkfBDAG8V39W3FB0mUcSe8sD7Hh+DtEjBG2naQk8ETnU7Sxh7OHGKWvbj8akxJ9MZE9Fahn/GuqYrvxjPufH7F9i8xuE6b764neSNU5KUbFj7SjVx2zRzhyqXjAhmWDXbGLsUkoBsj587RDVN8GCC4tOmaX2CNFQtF1vLpk6W2rQIXumGu90o3bgEvsfPJ8Mh4ZpXlqMAUQ2JeW7oIcFl23qW1fwgUt7zrPrK+57RmnGTEGVZ3tV591nL9I3NiSC4RVX1QzU2ER8kNTDYREpnowragUcnhlodoz5XSNWb36uFab/iWZvC9H+lTwhOlb7dPPb3A65Z9orfjD5RA0Ec70fb/YALHfR+hKXNyrQujlL3o+1+Mo95GvHJbfYj7mlS84LC1rGbBhF/tqVli2Vzegc2mRrlffGCNWY/nJpm/Fx4UL6dYTjt5XHVtRMY1bgU60YivWRAzfp2tRbt6N26f9lPLOP8oa7y98fHx+WXQPt3vfrz0fKzAa//Ag==);strokeColor=none;spacingTop=-3;spacingBottom=-3;spacingLeft=-3;spacingRight=-3;points=[];labelBackgroundColor=none;rounded=0;html=1;whiteSpace=wrap;" vertex="1" parent="rZQSEeScumoXJ7R4sCdh-119">
          <mxGeometry x="0.5172413793103449" y="0.5263157894736842" width="42.931034482758626" height="21.052631578947366" as="geometry" />
        </mxCell>
        <mxCell id="rZQSEeScumoXJ7R4sCdh-123" style="vsdxID=115;fillColor=#2d5967;gradientColor=none;shape=stencil(pVXRbsMgDPwaXi3AhMBz1/1HtaZLtCyp0nRr/35kkDSARob6BubO8h22THB3qQ/ninB6GYf+o/pujmNN8IVw3nR1NTSjORHcE9yd+qF6H/prd7T382FCTqfP/mvKcLM8OjE4vdsbk4D4G3m14Lbp/gQXDGS5Br9dB5uauWxzMnp3kZLOFHrjDqSBa4dyIaUcBO1dKJAzxIW0ThZaBLIoTWBNmcyDR8lDYcrIUL6ypWanQSvg6Mtai0e/sEVX5Klf6wM//9e/PUg48EQPRGC/uzSCyOsZzYFq31oZWFuWIIVvrULf1wKBlkHHYLpjVgyXU+egBU1+nJAg9HOEVD0xOpIbGm2mUwfTubg4Gw2i9H2WwWRKYILkNPCKsIx/ng0yE89yfUaRJMRfn03YKCkmpDVHQ7bh6fZQ5uLN4bFfTk3b2vW0fg/3kQnZXYb7Hw==);strokeColor=none;spacingTop=-3;spacingBottom=-3;spacingLeft=-3;spacingRight=-3;points=[];labelBackgroundColor=none;rounded=0;html=1;whiteSpace=wrap;" vertex="1" parent="rZQSEeScumoXJ7R4sCdh-119">
          <mxGeometry x="10.862068965517242" y="10" width="21.20689655172414" height="28.421052631578945" as="geometry" />
        </mxCell>
        <mxCell id="rZQSEeScumoXJ7R4sCdh-126" value="cmp-adc-cequence" style="text;html=1;align=center;verticalAlign=middle;whiteSpace=wrap;rounded=0;fontStyle=1" vertex="1" parent="1">
          <mxGeometry x="44" y="369" width="152" height="30" as="geometry" />
        </mxCell>
        <mxCell id="rZQSEeScumoXJ7R4sCdh-127" value="&lt;font style=&quot;font-size: 10px;&quot;&gt;UI access&lt;/font&gt;" style="text;html=1;align=center;verticalAlign=middle;whiteSpace=wrap;rounded=0;" vertex="1" parent="1">
          <mxGeometry x="83" y="202" width="60" height="30" as="geometry" />
        </mxCell>
        <mxCell id="rZQSEeScumoXJ7R4sCdh-128" value="&lt;font style=&quot;font-size: 10px;&quot;&gt;Linux jump host&lt;/font&gt;" style="text;html=1;align=center;verticalAlign=middle;whiteSpace=wrap;rounded=0;" vertex="1" parent="1">
          <mxGeometry x="73.5" y="340" width="77.5" height="30" as="geometry" />
        </mxCell>
        <mxCell id="rZQSEeScumoXJ7R4sCdh-139" value="" style="shape=image;verticalLabelPosition=bottom;labelBackgroundColor=default;verticalAlign=top;aspect=fixed;imageAspect=0;image=data:image/png,iVBORw0KGgoAAAANSUhEUgAAADwAAAA8CAMAAAANIilAAAAAAXNSR0IArs4c6QAAAARnQU1BAACxjwv8YQUAAABOUExURQAAAC5aaC1ZZzBYaC1YaC1aZyxYaC5ZZi1ZZy1ZZytaZS1aZy1ZZytVai1ZaC1ZZy1ZZy5ZZy1ZZzBgYC1ZZy5ZaC5ZZy1ZZiBgYCtaZahL4HEAAAAadFJOUwCA/yBgn0Bw598wx78Yh4+vz+8Q96dIeAhYibUPEAAAAAlwSFlzAAAXEQAAFxEByibzPwAAAR5JREFUSEvt19l2wiAQBmAghizS2jRq2/d/0Z4ZFidj2IyX/DceGL/gBPREIVykYulc4cQLqvcm5CDu9SMDxSMpaN3vYklGmuKJFHCVzdjORTEmXCGP5yO4U+psjDFCiA9o9LMSY/yYNF6EL1JKmJrh9WsfQwliOI73vHgj3OdTKo6/4Y2DL5HTJJRa4M6YKY75Po8Izoi1myvGtufO4UzPHGPPq8eZnjHkhmG6B15SPXM8Qr8E6+eeUycMrp3EdjNc2AnL4tQJy+J4z1X4Ct3ffKkS833ewxOeOhvYi4Bx5ZBpF7Okfj051v575rM6fN+sC/l5wlVpuOFsGm44m4YbzuaN2D5CFmf7KFWfgDf/Xgrza/HA58vyh/j1HML/2hIWqIkaEXoAAAAASUVORK5CYII=;" vertex="1" parent="1">
          <mxGeometry x="454" y="70" width="40" height="40" as="geometry" />
        </mxCell>
        <mxCell id="rZQSEeScumoXJ7R4sCdh-140" style="edgeStyle=orthogonalEdgeStyle;rounded=0;orthogonalLoop=1;jettySize=auto;html=1;endArrow=classicThin;endFill=0;entryX=-0.108;entryY=0.7;entryDx=0;entryDy=0;entryPerimeter=0;" edge="1" parent="1" target="rZQSEeScumoXJ7R4sCdh-80">
          <mxGeometry relative="1" as="geometry">
            <mxPoint x="350" y="90" as="sourcePoint" />
            <mxPoint x="410" y="179" as="targetPoint" />
            <Array as="points">
              <mxPoint x="356" y="90" />
              <mxPoint x="370" y="90" />
              <mxPoint x="370" y="160" />
              <mxPoint x="396" y="160" />
            </Array>
          </mxGeometry>
        </mxCell>
        <mxCell id="rZQSEeScumoXJ7R4sCdh-143" value="" style="shape=image;verticalLabelPosition=bottom;labelBackgroundColor=default;verticalAlign=top;aspect=fixed;imageAspect=0;image=data:image/png,iVBORw0KGgoAAAANSUhEUgAAADwAAAA8CAMAAAANIilAAAAAAXNSR0IArs4c6QAAAARnQU1BAACxjwv8YQUAAABjUExURQAAACtZZixZZytZaCBgYCtZZyxaaC5XaSxYZyxZZyxaZy1ZZitaZTBgYCxZZyxZZy1YaDBYaCxZaCxZZy1ZZyxaZyxZZyxZZytaZS1ZZy1ZZi1ZZitVaixYaC1ZZyxZZy1aZ5XQBsAAAAAhdFJOUwBwv4cISIA4aP+XKFgQ969gIKfX38fn7zCPeFAYQLfPn4CkDhYAAAAJcEhZcwAAFxEAABcRAcom8z8AAAM0SURBVEhLlZfrtmswFIUXUjWVqFtQLd7/Kc9YiRKpyz7zT5F8I8m6pkQn8nw/EO7HK93C8E5EEQDERPTwwsSdc6SQoTC9SWQx8MxvEkDhztrXAygr5iEF1fpB1cDf1o7QCNEAjUSYSDQAWqrRufN2JF4N0N4lInNmJYRClCugS925rnqzYUCmRDcJ/03UzZ8az5290dsHUCc1UD/4vcKTf0Kg/IQSKFuXWNVWgIqICPjoDzNsft8FIHsHWdQ3QKwPtgsTfRrgYOtPLEMHMOWliZof9damjmBKfeD1JVa1EnIxxyFMYtgJl7wCbsvbMUxihOTAt1VvTHEC8zJqGy7J1hBnMB9wE6pCQdmJewpTB5lbry/HCuewUMiWl0cvUVuDVzBnzHP2jM59M/kr992BidN04oebzphhM7gH3z+LAo1wsMQYRTInnVG+C39zVSugQp+0Q013e+AvcEQdfLPtivN1ldiFLXlACYT8yIVC6dxfdAFTzFbSgfH4TdIrmGPUZGAPuR35A0yFycxnA7hN5fO5qJSe1JCnrefu+0IfDYVUYhKT7YVVZuvuV6NBhChJwdPVa0dncEcJGpoAv8FguXmRObf7leUBtcJE6cC94KSY74odXXNSh5Dv7VDOIWrr11XZ3HNb4P/hEtxZdMFW4cbRl7CnOLFMPdPWs3QFmxLA8RmiagPAX/XehTcpWTx8XccmDHxsS/k1nNALo0nOoYIKV6W7sFWGJlSF1EVMcEPfVt5d2JJgM1XaRcIrZtt9tcC+b6LHgXvAfy15l23jZIHd+m0kKoyWa3Np9YBL2DNuWtQBVt88h52VTKdbbXQKi5EvdRvdgHExwSmc7dSdyGo5Z3Cwe6XpgGK24Qkcfgu2owGojcMOYa526+k2ioFKm+II5ouUv89qB8ogPYQTBcR7ezbqJaASNp6pEzN8bzCJlu/tP3a2xZdTKM4UzpnczE50HgCYI/1Yd14g6ICH3gfXuRFZJIHq8MZrKUDDt44ybjAUQFwDKWXIjk9r6QbE+pKz/kHhlU+Pu0pXhyHqgGciUbx0K6uOXORIxOXITZfbgr55vOqqcEr7pUSsmmlbj7b6B+sMSS0BVzLtAAAAAElFTkSuQmCC;" vertex="1" parent="1">
          <mxGeometry x="308.5" y="70" width="40" height="40" as="geometry" />
        </mxCell>
        <mxCell id="rZQSEeScumoXJ7R4sCdh-146" style="edgeStyle=orthogonalEdgeStyle;rounded=0;orthogonalLoop=1;jettySize=auto;html=1;exitX=1;exitY=0.5;exitDx=0;exitDy=0;entryX=0;entryY=0.5;entryDx=0;entryDy=0;endArrow=classicThin;endFill=0;" edge="1" parent="1">
          <mxGeometry relative="1" as="geometry">
            <mxPoint x="240" y="89.5" as="sourcePoint" />
            <mxPoint x="302.5" y="90" as="targetPoint" />
          </mxGeometry>
        </mxCell>
        <mxCell id="rZQSEeScumoXJ7R4sCdh-144" value="" style="shape=image;verticalLabelPosition=bottom;labelBackgroundColor=default;verticalAlign=top;aspect=fixed;imageAspect=0;image=data:image/png,iVBORw0KGgoAAAANSUhEUgAAAGsAAABsCAMAAABaZLyGAAAAAXNSR0IArs4c6QAAAARnQU1BAACxjwv8YQUAAAKpUExURQAAAAC/3wC91gC/1gC/1wC/0QC81wC+1QC+1gC+1gC+1gC/1gC81QCqqgC91gC+1QC/1gC91QDC1gC/1QC+1gC+1gC/1QC+1gC/1QC+1gC70yRgkiNgkgG81AC/0yNgkiNgkg6auwC+1wC/vyJhkxGPtAK60wC/1yNgkiBplxOKshGSth5tmxp8pQyewAK50wydvxl8pgC81gC91gC/1yNgkwC41gC/1wC/0gC/1gG50xl6pQDE2AC91QC+1QC+1gC91gC81AC22wC+1QC+1QC91gC/1QC81SNplgC+2AC+1wC+1gC+1wC92wC/1gC91wC+1gC92ADV1SVgjxp5pA2bvAC+1QC+1QC91QC41QC/1h9yng6YuwG91QC+1gC/1gC+1gK40gC91gC/1gC91Rp2pAC81wC91QC91wC+1wC91QC+1xh8qQC+1wDA1QC+1wC81QDA1wC+1QC/1wC91QC91QC+1QC+1wC91wC+1wC/1gC+1QC+1wDA2QC91QC/1gC/0wC+1gC+1gC90wC/2QC+2AC/1weryAC+1gC+1QC/1wC/vxp6pA2bvQG81AC+1gC+2gC+1gC+1QDA1gC/1Rd/qQC/1gC/2ADB2AC+2QC/1QC+1gC+1QC+1wC91gC/1hGWtQDGxgC/1gC+1gC+1gC81QC91wDA2wC+1wC+1gDA1wC+1gC+1QC91Q6Yuhp3owC91QC+1gC/1QC+1gC+1wC+1gC91QS0zhCTtgC80wC91gC/1gC91gC+1AC+1wC/1wC/zwDA1wC+1gC/1wC91QC/1gDA1gDA1AC91wG71AC+1gO30Q+VuBx0oAC/1gO40R1wngC81SJgkiJgkSJgkiJgkiFjlB9mlx9mliFgkiFgkSBgjyNgkiBgjyNgkiNgkiNgkSJgkyNgkpBTNqMAAADjdFJOUwAIfLuTHBNuyP/fhCoDXbjOdBkYv9s88wz7QI+f+jTf///XBP///5+vpcDGqLPV9///UHAgUBlzKK/Y/w1ow+uQNQdivc5zVDNWsdl+I1CrvGEGMP//+8htEqc6///POOfOZJeAaiZg3fGMhXMzSfyNWZlgkzbc8kaO1u+mXZCbQMy5XRSiq4vDyX8I////xzfVjUUw/657IUOL0+GZUbNaCWPkij1NOd/spYLd9f//bO8k4nmO1v//Ls2/d1PVshDFnIvUxn016f+W////j8H/XHCA7//fxsW4wCDvEL/n789gHXaPjgAAAAlwSFlzAAAXEQAAFxEByibzPwAAA9FJREFUaEPtmPtbFFUYx0cg7NUsaEFYQvZNLOhmyaXMNMtSwgqrzTJNwlyXik4gapBaaJIRXglK6W4FdFGLLFPxRtnFawVtWsFW/CU9Z2Z3duZ1Z3Z2GXys53x+gf2ePd/P7jnPzJlnJUkgEAgEAoHgP8SwuPiEC2g4JCQOvxAARoy8iA7YzqiLLwGFpORL6aC9OFICJk7qaDpsK1oVQFo6HbcTp84FQ/rF9CrIoON2IlyDJ2bXZZlRM0bvyqKVhrgwai7XqcZm00pDYnCNu+LKkCrHQRuNcSHm0kUy5Kqrr7mW/71u/PWK6YYJ/Jafl19Aa8PiQiykmQE33pSk3tsn3gwAk25BlCZPuRVg6m2303eHwbJr2h13Kt9l+gx52UbHFd2FiMUzlfTue+6lM87CqqtkVmiP7rv/ATlz44OzH1LTh+c8QicRrLkcc0MmTspEns57dL4uLX2MztNj5hqWEdjz9LG6TgAo4yMLaJpmfq0Zu7IfLwPnQnlvimgpgEeSsmgGkENLdLgQF3nDUf6EPPvJp7xebwXtlFvzaAaQQut1uBCfZmF4pjI4P5+xKn0jx07XYnV+tXDF6Fqizl865K5lzwam19QOuYvVPrccAFasfJ4x9gLtBKgLe9XF03odhi7GVlWvfrFY/m8N7QQol6R6mslXuAkmLg0v0dK1/DR+WX87BGgwfwa25mLJ8drOVxrX8bnu9Rs2atJNcxJpux6LLra5cVOws+nV5hZ5rhvxtdfVdMtW2k2x6mKs9Y03eedbb7/DWIvkqEt99z1E3Pa+fIR+8KGiN8Waq619GWOso/qjjz+p5a9LPt0OADt2foaSlP15aWfdF7Q3HFZcHVU1sOvL0Ovmr3YHFu7rPXtpoQmRXW0V++Terv2B4MCu4B4BQGcRbTQmoqv2oNp7iC8kY6GA4zxMKw2J6OIPZ0GUddQEHOvP8xFdXZraKjnRBBzhOq9c3Zpaj5xoAo6NLk+otXKNnNRoTQAWbk4BIrpYfvCEXr1YCb7RqRpoozGRXaz12yMA8N33PwQDz4+q6ajH/MjSYcHFWMexbo9yz1BoT2iSTcdPnKR9ZlhynUVL/SknwE8/I9I+M2J0SVLBL1luPEcu5VwWLuEiROXq6Q3wq8/32+moOfM75w+fzxfs6f2TKlQy6Y9Mg6WvnypUCul7B0suNYToR0SX3+/3//X34OAd/6DhDxcymaYfJToKEfuMt0uSBhD7aBYruRE+N1/EARrGRn9fpCp/YMNsABHNllBeRPswXUJlEW2jl7YTemzE+EIWCAQCgUAg+B/wL+G1PK9KFc+zAAAAAElFTkSuQmCC;" vertex="1" parent="1">
          <mxGeometry x="187.55" y="60" width="58.45" height="59" as="geometry" />
        </mxCell>
        <mxCell id="rZQSEeScumoXJ7R4sCdh-147" value="&lt;font style=&quot;font-size: 10px;&quot;&gt;Client&lt;/font&gt;" style="text;html=1;align=center;verticalAlign=middle;whiteSpace=wrap;rounded=0;" vertex="1" parent="1">
          <mxGeometry x="186" y="102" width="60" height="30" as="geometry" />
        </mxCell>
        <mxCell id="rZQSEeScumoXJ7R4sCdh-148" value="&lt;font style=&quot;font-size: 10px;&quot;&gt;LB/CDN&lt;/font&gt;" style="text;html=1;align=center;verticalAlign=middle;whiteSpace=wrap;rounded=0;" vertex="1" parent="1">
          <mxGeometry x="298.5" y="102" width="60" height="30" as="geometry" />
        </mxCell>
        <mxCell id="rZQSEeScumoXJ7R4sCdh-149" value="&lt;font style=&quot;font-size: 10px;&quot;&gt;Application&lt;/font&gt;" style="text;html=1;align=center;verticalAlign=middle;whiteSpace=wrap;rounded=0;" vertex="1" parent="1">
          <mxGeometry x="445" y="103" width="60" height="27" as="geometry" />
        </mxCell>
        <mxCell id="rZQSEeScumoXJ7R4sCdh-150" value="" style="shape=image;verticalLabelPosition=bottom;labelBackgroundColor=default;verticalAlign=top;aspect=fixed;imageAspect=0;image=data:image/png,iVBORw0KGgoAAAANSUhEUgAAAFoAAABaCAYAAAA4qEECAAAAAXNSR0IArs4c6QAAAARnQU1BAACxjwv8YQUAAAAJcEhZcwAAFxEAABcRAcom8z8AABztSURBVHhe7V0JmB1FtU4QEZGnKOAGbuhTn6KC+BSf6Egyt6v6zkwCT0dZRdAXTCBkuV1VfSfLJcBDBJQXQHCSzO2q7nsnyQQIuyI7YXlKRBIggGziAgpZQMKWhfu+/1T35E7PvbNlZvD73pzvOx9D3+rqruqqs/znnMq4cWM0RmM0RmM0RmM0RmP0ZlFl3HgeTX8nj/KfaewQDcz4X21cIj7Y2tr6lnTTMRoCZZfkPsKMOJ6HchnT4o+ukS8yLV9xjdrMtVzvhuqqTJhrSd83RgMkvkjuz7UsuKF6uGnZnAo429lWyZbzFbfkV7Lgcr7S3DW3wiN/GwvEeXzh9Lel+xk2aig07NpYFP/qlqTLjZjGAikdI3Kulie6oZrAlohPTTT+3un7/lnpkPYpb+WB/AHX4tGm5XNpgnkoK9zUZxcTvnxuhQXynHGFwi7pPneauBFZXlLLmRGb8HWJO+P/xsy1eIlp8b/cyItZII7PhLmPpfv5ZyG8GzNiKSYOE+yGqtek1mOsdrecf8UJPJ7ud8hEX13Lc92y/1rLZfMr2bJvXyrFuIZt1rR0ToXalfyKG6nHmRZLeaha+MLp70z3PdLU2lXYLX0NxI1o4EY+0LxiXsWN/F4TORDGGLkWXcMiQhpuLezKjDgPWwWrN/2wHhyqSraUp4lGewxi0srTK5OuOJ22G9fqd9z40yboWfulnzNShFXraDk12+W9P7nmhN63eEn9jeRtegyDYCwkpsVGrr2P93zqEMgxotkt57dgFacf1OOh2H6dbRVuxAau5Y1Myw6mxSJmxGVMi4dYILY1r5hfmXTVGRW37D/EjJzd2K7elX5ev1Qo7NLa1foW8EDkI1Y0M+Jmt+Tfz7T8DivKk91QvUiyuMY4BsPYwRh3Rufc9HMHRYVCYRduxLXNy+f1ekg1W82sXmZa/ripPPOAby+f9fakD4idprL/bq69z3Mj5zCjftPcNc+u8pJawwL1/eb2wh49nzxu3OSgsBfuYVGuiUVqBtPiAm68TqbldUyLmy3L63iAa+ICtCEdor3PTw5m7FXdl2vkMSQiQrmVa/EG6ZIa4+jBUIixOCTRmP6d2tiJZkb8qPp5g6ZJneKDTIsNfb0YZLJb8l/H9kzfX4sOXT7r7TyQR7mR+o1b8je4Wi74TCxH8UGw6lyjFnKj7uBGboIYInML/13aVoeTNrSjNvFQ3u4Y+T889FsbLp62J3YO0+KJpuVz+pXHbqSon8S0SxjXMNZaE82156XHOSiCN8SMfBlyN/1CCWOQTHvXpe/tj5zFs97DF07fl/7uUF/gWv2Ua/mIa+RWKBnSCRhYvdVUi2MdgXupj2VzsIIvxjN4IM5uWdHHztR2Z4IdIx9hWlzIQ3EsC2QTi+TJjhHX8lBtsxNb9Txrac1Kj29QRK4nvKL0l6weWGe+4oRiSvregdDEJbMPzob+YqbV5sRJqPusIXAz2cTqBR7J/VlRfNGN1Mv08Wq0pedG6llWUqdgZ6XfFcS1nOqW85u73zGZaJM7Id12UMT0zM/CLq4nOhJlAIWZvrcvajTqw8yIi3ikNmKV0Yv34yQMlcmx0GLGuEplPOR6vVUNZ4VpcVf6XdMEjzALMQL5HSko9oqjxeHpdoMigCrw9+uZdclEc62OS99bj5yid0w2VI9YcxEytXe/w8mQrUzLe/FsFuROI9lr7XuS1yQuOttoopuXkXt9sxPKTD37u6nDPwB6wC1Z15wZ+Q94yul2g6NKZTzX3rLm5fVNITsQcWFyC8yuWlZEwwUz9uJQUJG/zbq5g5C9VYwJSmQp/k7/nmasOKblFlYUX28uF/ZhWjyXXWrH4wRiG9NivQPzE1YMvMRSvh0uebXlVE38+ulv44G42Spn6Cdxz+SVhR5WzpAISBZ96RqDANPDAu+xpkumklzj2nOYFj+s7iNbyn2ER/71MBOHKoNxH0w02gVabuZGvoS/YSriw026okCMldnjI4aSgCDHiF/gXdxAHMFDeRQP5KF80fT9M2HuHdXv2j9h8ckgUbjMeBelWwyJGsnEk3+oZ+CTrCrn3+DGm047wMjbuRHF5P7MktyBrpb3WTu2/xXYi0NJE8mMeJ2gy8D7PjezD+Md6jBHyxO5kSu5EXexUC7ggTeHG3kLbesqM47MPi2ebgpzB5JvsEjuny15B7lFmeGBONYJRI4beaYT5D/dc/S1iRu5uGXF/Irbmd8OUZj+fcjkGDGf3NU6E4VtTFswkHfTitJyGe6bWJz1OdeoB5u75ve6Z6CMleMaeT8zfiP6BPA+sewfAIYz1BCcsHtrlYcJ3IEZeQ59/CoFi4/MjPwjM3IN0+JprsV6ZuRrkNdYmZOvOqPCQ38tFkb12NM0ZXX7W1kgrgC04BTFU9nSnI+k2wyZ7Kr26q5qMGEcUCjLIbfkzbiPheIsGkCN9gNh9OdoeQfMM8CzbtGbzSN/HQ/l9mw5v51p+Us8B3iGW/KvdUv+rc2R+OIJQWF3psWqtG4h5wZQKBySGGeulvMtXfMrLJSrYRWl5yChxq4p7+JarGu5vAD/oZT+facpU5QnDEQBWUtCPIhQEPCMlsvm1d0JfTGZZaFc09A+e58GuOOhuDKRxxAL2Lpcq5V4N67lpUdccxbJaOAsuAasGJOR7rc/hohjgbihHtKYKXkHMSO3WdEksunfd5qwTZ3A6yQ7tA+b14oRuf6Q9il7OEYek141A+HYbt/c2DH7sEKlsIsTyKvI3q7qh0SUEdfi3XhRFo64+owK2DGyk65pcXHL5YMXWRAxJCaLYiGenZ4HJ/DmkBLUcnUt62pYaIJu288x4qG+4EV8aabltibdth+UDdPi9XoOTz3GanaM/G88kxfFGSSnUx+LPqCRL3Iz++Dm9il78MDzmzrbFkDMNRv1YW7kkxZN7N1/fxyHrV4H7lI9/tauwp6O9n43+coFGOPJ1b8NO2UWe19zQ/UcyevE56+eAKvt38iEua9As/N6oFRoJwvykrDrLstQMiyUTyAc1qRzh7iR2lxvwmIb/j48C/Z7Q0PDrrHt/3FYGegr6TeRzQP1QgFAce09Bv2QjJ1pcXTzinlvsFCtywY78O0Ro0yHOjJbytecQODWsK15mDuqSc/aD5q+2gNMJpdMNi1eI6zayFsgBrgR1zctm7uKBRZ25FpcC2WaoGm1bHDY5sC6ofzckn8H12IR6YfAOwV9oU/bt7yFnqXlawnSV6u/bob9DT1RtM6Ys7jwHqblfYB3WVHMSM/JiBEreie7kdqSvGwPh8LIZ5nxJlM7I9Y2xQ4P2bOh2oZBcyNPwMqbtET8S0OhsHtrV+tuMM0aghl7tXZ1Ue4EM95XeSg9wp2N+is3YjspxBgaxd+4xox4jgXi9mzJL7hB/mu4t6FQ2BV9oU/03RAUdseznMWzPkH2t5a3wnqx0GqNid7xvi8A456w+LT3wVFixdw69JOejxEjrtWRbqS2JiErbuSrrpE3cKOmN7fP3gdtJgC41+JpgDB2las/ZgJ5FH5rLbTuBu8MDggzch436ifZyP8JMx7ZyzzK/fvEovxcgjlAPmLrcu2Fbiif4pF6kgXSuCX/u61d0/aM2+yGe3Av/r/JeI3oE32zUM2ljxvIQ6HY8Tv1F8qn6d1qTDQY1g3TYgnau6Fc4Gjve1XTMLLkFGd/CNsQK4oZ8RiP/DObtH9I8jsL1DdZ4LW7kXyKoESsjEg96YSzvoDfeSimuKX83dwIiz2vmEcDIvmsxdFHGH9vpsXDbklt5EbdyYxY4hhxUuIuw25Oouu4xo04iWmvg4fqTreU38i0t47w7lAehT7RNz0DwVQjt/Aof7dj5H/RuyyZfTAWAL1jjYmO44IvI2MJQYsp7e30kUacsK0hQ5mWN7HIPzqJ+zVcOuOj3MiZPJT3upF6lRQQ5CBBifnXncD7Ftplil47BkUueZWMjAH0Z7AteZhrIVm+fC6ZbM2EKYgbsBrRB1Zksip5JA9lRt6ASURb3EOo2pJcE9BHR4tnqnUJfoOpiHdwOnKEf/BAtMLKSFs2xKGK9Yk8v+dMjDBhgJlwTneuBlYUC8QlwJYJ+kxpditH5S02/ihPqAfuWxdfdqFPpr3zj7j6zAqhbJF/lxOII3Adrjai6G6Uv92NfGAq05IPzbV3JI/U3bgH93LtnUt9GbEifoceTB/SYijHw2JhWt5Wqx049ogfbrqkdkBgVCjTIb+dWBHpF8RqwAQynTsLbZkRd5LZlG4HWXj5fCBsuXjQD2Q7256DZznOJhWOdyP1Q3sdaVnziGOM5QEnIDEwfhzujeRstzP/PDNiDRwOZoSIRUYvjif6dhqHFj+mia5h+sVO1xZWlP+ZHv+oETdq4aQ6AyGxQTLOI+Oea/F8LZOQBhKqrY1FkeUd0/cFDDmhI/cZ3ONq6bolfxWB8+R+79jeFEiNc+TcklyVjbOG4shQMNGcsrfTIZqhtGvtIgpoaPl3Ow4xLZ7QXu3AGKOr1QWp4Y8ONXZRdHkVREb6xZKJAGSZKYppaM8D+fda0RqIGySiZALvIJhlaIskGx6pYmLZ9ImXYOdY2bzFLcmOJEEHfSFWiIhILWWHD8S0eBZtHS1PBTBWb6LpHQjgKtTEQEaUMmH+QG7EC/UCnono4IF3Nto7WtydDl8BWyAkzMgbknyMTCBaWagex1bGh+rVbx1GW7KEIvV4Rue+jb5sTom4cdLlhV54uJ1oeSfaAVolM7XOB7XWh7eRLZr52dQ0jDyxINdEsrmGXEuY0DttwR839BZUKxysHnwI18irYDKiDVaWW/K31pT5A+RY4W5loXcK9bmUzNGrm/DhqlYsvYuWBch3Fojr6V1r9EcM6wOKXsudy0oaCsGc62+iCVoN1XOZRbmPMS0/y0P5qo2AWPnqhHJxoTCuGyXjWl5TT/sPhmlla3F198sWCruw0O+Al4pn21wV9UrWyH8jbCT0n+8z7S2J9ATytO4+R4tYqC7oy6vaMWjIcG8O3aNz5RaK7ZHGv4SuFcUXEzSMa++OnVnNCVvb17sNfTqhnOroHByq8SyQ7ZC3wK5ZkIvwu2vkvIF8XBqrFj/tOQujQMiF6wsrSBgKkBnxl0yYey/vzH+eh+qljJYUnXD0rC+7ofqzoyVlFLFArBmWibbK6/fUpxGX4Bm8aF1z16YRvwR3vaXztPdxI/9aS0mnmUSHse89ekQJKd51A5lol7bdXFgfFgnrEM3Q3ti2biQfjyMhtOIRJhqWiaY+1IPoE1jKpMtPr7iRfMwJZn8aShfeJ71LMXcxiZM+xF93nxhrIK8hm320yDoWyG/of6LBZD+HcqsbZzVNXjrnQ5gIOBNkaxshcB35d8M10UyLdbZPoZIgLBycBGMmVz9SW2vZ9rWYxqrljfByU9MxcjSYiU7wBR7J7Un6GAbLtXjgTZjotUg3oOs00f6WwUw0M+LXozrRAxIdEBk2JWtTttO/jQWerCABJRCtyFxikfgUj9QfWi4n1G4uuh0J0eEEYj5EB4/ko67xP2nTg8Uk/AZxZkVHbfu5R592RY+u6AD1pwzjSb7u8CXiU933IO8iEPe5MYAEBcUj9SfHWGXItbw/CRTsDBOKp+V96JOUYeQ/HVseeMYyN1QvuSX5OShopgelDMlSGVXqy7yLXd6HEZloCLz381CdwYueBxgUeDWP1HYW2IymkTbvXCN+lC21HYR0LsfIxWTeVeVlYDf1FXDu7vPNMu/cSM2o57CQWx3KH6MdqrKOuObMyuSrFsDDoqRt4NkUTQ79juqy35FyWICj8yhfpJWeOCyhfBVOVFPHzAN4qGoCXt0cOyyU+jbaxIsia0NUvV+Mgpix3GVa3YX/x2S7WhACBpyYoitwiwNxtbN0DrngcJthCdT7gP1yPCEAmDLGglnIPEo+YNoFZ0acbt/Ru24gLniCEI4qWVBJbqoFKlm0S/yaMOFAfTNb8hF5+RXqYiBKmBF/RkkclBBt43AHqIRoDIAhwpwHASpRWQV2Q6QeY8Zix6T4jLwJOyyt8KpBJTfw+geVAm8jj+HbUaW+YNK4uPONTODNQ9AURTt0jy3cWUoyPF6xtWBSnCTgatmBlTkYmJQZtYT9YuYH0MeAYFIjBwyTIkjwpsCkICSX1wP+k0RCBFyprZaeW8r/loD6qomLAfdu4J8FwkB24h5mJHNL6g5sWxIJPYB/G46i/sr+7aw4m+GeTJg7EH0gCSdTtE5JPeCfDRD4j3Ohf5Ya/ugRtrkb7sjv6MHAmi+DHJTnoC3T3loowF7t4lCWm4SyjFjrdrY97xiVS1Y4ktvhbODjQTyQWLE1fmu4USehDTJOkQeS7Wxbj+uE2AWeRN/4UBAf4MRSIssklGSZoEaSxE4NvQAAzCbAqyNTwx89IhkYiEfrmWQW8xW3wrLgxTg4WwOOpNiiESvQJwpykuCsG6m7E3nb2I6UWTnVLfm3IUUXZhsi3XAg6IOX1D1JcHbHx5UrJ+HjavEw0/JCbsRCruUDeA+b9qWOo48biNu7rZ04XY2i9SSS8uuRNFmd1DixPPOAUUs9SIhreb61EnpvOzKlym1bEDVBW6foXYoBdFdjxe3i1fks0mXhpkP52HSDM2PX2ft1dbpB90o33lcdLW5MpxsgpRbpvijm4WX/cjgm3e/bkd/XNaqUJMYwnftOtpzfQqKIMqDgKfqvMC1+y0J5WmO7zZemaE1ZHMuMd7OjxZQko2rECUoORTWQp44WdWv4bAKNfApJj7gPYoCX/TuRzJJOoHGMd4yzHHlu4uFsOb+eh/IOHopFSFXInNc7gab56sIeLES5hVzshnKVTaARD2FSkCTDjdww4dJZ+yEpMVvKl5rK+c4mVFHFeIW7ZOaXkK1klbPCez7paO/SjFbfSMYZe69nMyOeoPxppLmN4sEB4xydOxFptfibBV4HJYfXmGgwycVIPp3UfExBjbiWX2YmdzzTqg0yMltWZ/NATMTvrhFfQjQ7SZRp6Jq2J0qbnSQlzCAlTBjXiO8mGUythcJuqFPBvfadZFOSeouoOBImsepdI5bSM8LcBLfk/wnvZq0S8VRSWkHYeeAhIehGpB5jgkmMRP4WVrR5haNCMNN44D2CxD96KeTZGflivRRbO9lk0qEk4jakcaE+DzIWCYjYHcBBDrtk6ru7xULZ35HkqMUz3MhtkKNkgXQnOcptLBR/gRcIrxMpvLgXx19MvOiUveF2U1/Ga5+MZPVrzoIY6rDXxBKS34liNHINrlMyjpF/I8VbJeJiq2QL10OrFB4SsaKcja3OtVyNPDe6FngXWZu39yQnbOVgGxVPskC8DrQOE8+QXqvFr5qWzb2Lx+kJzgDSdklpIedjaRsV/CRut6NzpzZ3zb3HCcSVgGQhOtxQXuhq9XNs+wmd+fdhBSdud7KiGzsLOGjgaFrlNZ5nTdb8hoz2Rt4CYVHbB3goH2numvtGdVY81VwH4vF6FkgPrkpEpyIjJIwD7MHHM+rJ5vbCPs2o3w7VS33tkoSpTaT+wY06mJRdKJ6iBEdEbyL5y5aqNDbCwo1cWY082mQasd4J1ReoBjFW5OnnIPk+Xv3PZwKPUoRHjGDc2/IC8dvjUgWRkJmUMFjDhBsokxemBQFSPPDOtLKxxqBjpl1iK7iQOjCOF71zq71VO6Hqr8yIiBtpmBZ/TmM0Nr1MvsYjMREfwtEiLgjq/Tx6R1sk+lDT8raRUYqU1Gjk720+m/LTv8Mm5UVvoTWR6k9OX0zb06jNKCsGVsJrFAsljGsUvdHeSltQKhp4KF+mo4VSfSZlFrVQOptV5SMmeBRZMvVKQhIOkTtNCGG5cKvVKcNKOIQKg2BabIMCTP8OAh7AtfpVnKA+JI5X5AOHdeT3nbwSwVRpy9/IiYFSsu63ReDkSijnTFh4r1tSD9TCXvrl2IvF2RsVRI+MfKi/YICFW/0KL+7kMRK1yDFiaYuFQB+qV4sHImgylKurTb5k1WAAiWzuM0JDIkSucopzPgRLJKPFLJcKOtU24kitcwI5E47D4XQCo7rLlsX17msgbJWpXID350bejA+G/mgyaxRGgW2AQTwKECw9B0MmKBQWeFTtxLS8DLZwuk01sU7KTFqLAWC1xB7bq9zI56HhuRb307GUfYiYeHWuRSkd+kRgFO/RAocldjoAJnEzxJWcPAclFKFcg8x+9MmNWI6QmhN4q1idLFgw1SVS8aki7H1YKBuI47Od+e2xbFqU/r0WoZAdBfGOIeP/KDgkEDnxChhPSBsK4vta2daK2YJEdV4UJ2V07huZkvoGD3M/AD6CEo0BWTo1mCbKirjVSaowCA4OMBoaQ6Smu0vz2+stCHwQpuWjk4ZpVY9nWv2cXGa7pTugfNKN6lNlfENXYU8UembD3FdQ5JNk8qPeZSD2d+oYic3dJRp9WAd9MWWfwqIJ/WsbzWk96r9xZkdSuHRY2X93RovH6i6GOKrjBOLY6j6GRASoGO83UEY2SClvrHdKC4pqkIXvlv0ldNKhrfFb52ixEVW1eDnqI5B/RwUXrAuuRU3MOM0WpIoPRqmzwvrluC4FODUL5M9iBLAHAcOhs/ViYqG8sO5Ex1AqDlbZ6VQEHO6K85XIDS2R1bERQc10OxCOV3OKszNuqG6CB0gKpfuIHQuuI5oBpehqeSru4Vqs7msgw8V4Dwt9qnVOUXw3/e71CLUuJKfrfFz062jvKZTppe8dFEG2JqsIjG2bCcR56XZp4jo+w6PGy1n7V9yISldYDwMJ+Q+JYy+UDjMpqfV05NCi6d2lxwMhmLV97aLY4fkH8gnT9w6KnFCeWP1FaWWX85uTZO80kUjQYgaP1N/qiYT4EKmXUTj/deTiheoFOkKtRtuhMLn48TFvTMuX3Ei117P9+yPX+D8i/VBvom1a28sQg+l7B0WokOqxdeID+WDPEroWyqlIs3JD9T2m5c9xkEoiS+vZoGB7PJpHJxk4iGIsn2sxarJf4+f1oSS7GW3iU8twL3muodwC3cCMOq8pzBP8iYQe1HWnx9cfcS1+WS9ZCBybf5uh6NP3DopYKCV5SqkvmqBxPc6Rjo+yrOUyp++1J9aIJ+BNwr13EZIy8mduCChVbqC+BnhkZhzp3oA4IAKpCG8hUo/3JxjWyDPdkr+Jh+pet+gdM9DzNqjcgwo+a+/MZKJRk77Tpx4ASOpLGeA6ya8BrsD4xbYD34WJhkNUqp9nXercgTgIG/XlSMVyjYhYIK9BRidx4F2DazyU57uhfyra4p5ap/hiUlF3jlN3kcxDrnso72WhmItTZQD1dltRlQrs+3cQXh7657ol/5V4xdbl+KDcqwZn8tagJuNnm2Al1JvoQXB8GOsmCmmFfisv+79nxrupnrmYovHwDuPU2UEPCqYcXHle8h8EAhmn8m4nXNzIKxAS40bCWcE5eJtot/aTxEMHl5f81zPDUUjUEvqf4FpsrAWGD5jpDDpyxZ9xwjw5KyBsNxR9sqXqoz2fOnIEz5RrbyqJEVgkODcPB6nEIatu4L+fhUVBBwpiyHMQ1Uk/Z9BE6bZaXFav3Lc/Tjw7ZuTaepr5kNWjHL4fN27cf6DI3/hZZrwSj+RjNOmXzU/y97rNWSsSq47YL+djc9F/xTHi7GrnZqcJJ3/jHxBIF2X2xXgpUlT2HM8I/85Jut9/FmKB+ijvUMch5MWMuIfsYjhWVedI77CkxAa3pDqZsdlRw0uU+SPPIU+vH+WQuLmxs/IwFNGo5UEMA0E5umb2J7NaHE4HquCIDO15dIRGWTLUJo7ovzKUnJSIw1wpWpGYdcmXj2WWxRL8B5lWc4cVq/3/RsiZ4KF/JYKUOJAVXhEP5Sam5ZM8lGUnFMcmZcdjtLMEURK1fQDeEBScU85/Gsol3WyMxmiMxmiMxmiMxmiMRpP+DySod7JGaW6TAAAAAElFTkSuQmCC;" vertex="1" parent="1">
          <mxGeometry x="44" y="64.5" width="54" height="54" as="geometry" />
        </mxCell>
        <mxCell id="rZQSEeScumoXJ7R4sCdh-152" style="edgeStyle=orthogonalEdgeStyle;rounded=0;orthogonalLoop=1;jettySize=auto;html=1;endArrow=none;endFill=0;dashed=1;startArrow=classicThin;startFill=0;" edge="1" parent="1">
          <mxGeometry relative="1" as="geometry">
            <mxPoint x="73" y="108.5" as="sourcePoint" />
            <mxPoint x="240" y="240" as="targetPoint" />
            <Array as="points">
              <mxPoint x="73" y="240" />
              <mxPoint x="242" y="240" />
            </Array>
          </mxGeometry>
        </mxCell>
        <mxCell id="rZQSEeScumoXJ7R4sCdh-155" value="&lt;font style=&quot;font-size: 10px;&quot;&gt;Nexus registry&lt;/font&gt;" style="text;html=1;align=center;verticalAlign=middle;whiteSpace=wrap;rounded=0;" vertex="1" parent="1">
          <mxGeometry x="41" y="108" width="69" height="30" as="geometry" />
        </mxCell>
      </root>
    </mxGraphModel>
  </diagram>
</mxfile>
